<svg fill="none" height="286" viewBox="0 0 300 286" width="300" xmlns="http://www.w3.org/2000/svg" xmlns:xlink="http://www.w3.org/1999/xlink"><clipPath id="a"><path d="m0 0h300v285.173h-300z"/></clipPath><g clip-path="url(#a)"><path d="m149.984 225.438 85.986 50.176-21.234-96.815 74.092-66.676-98.862-9.877-39.992-90.5181-39.983 90.5181-98.8612 9.877 74.0969 66.676-21.229 96.815 85.9763-50.176" fill="#002b5c"/><path d="m149.984 225.438 85.986 50.176-21.234-96.815 74.092-66.676-98.862-9.877-39.992-90.5181-39.983 90.5181-98.8612 9.877 74.0969 66.676-21.229 96.815 85.9763-50.176" stroke="#002b5c" stroke-width="9.48279"/><path d="m149.984 225.438 85.986 50.176-21.234-96.815 74.092-66.676-98.862-9.877-39.992-90.5181-39.983 90.5181-98.8612 9.877 74.0969 66.676-21.229 96.815 85.9763-50.176" fill="#fd0"/><path d="m149.877 187.744 24.874-14.212v2.826l-1.411 2.825c16.964-3.836 24.637-11.1 24.637-11.1l.197 3.225-2.017 3.437c30.096-10.099 36.96-21.411 36.96-21.411l.404-2.224s10.297-3.432 29.287-11.105c18.98-7.673 22.817-20.598 22.817-20.598 9.29-23.6309-19.991-51.3001-19.991-51.3001s6.459 16.1597 1.612 30.2976c-4.842 14.1325-14.335 14.7395-23.63 14.7395h-33.927l-2.422-1.41h-54.737-5.478-54.7322l-2.4262 1.41h-33.927c-9.2904 0-18.7831-.607-23.6354-14.7395-4.8425-14.1379 1.6223-30.2976 1.6223-30.2976s-29.28665 27.6692-19.9962 51.3001c0 0 3.8365 12.925 22.8218 20.598 18.9854 7.673 29.2818 11.105 29.2818 11.105l.4044 2.224s6.8643 11.312 36.9597 21.411l-2.017-3.437.202-3.225s7.673 7.264 24.637 11.1l-1.415-2.825v-2.826l24.873 14.212z" fill="#002b5c"/><path d="m149.877 187.744 24.874-14.212v2.826l-1.411 2.825c16.964-3.836 24.637-11.1 24.637-11.1l.197 3.225-2.017 3.437c30.096-10.099 36.96-21.411 36.96-21.411l.404-2.224s10.297-3.432 29.287-11.105c18.98-7.673 22.817-20.598 22.817-20.598 9.29-23.6309-19.991-51.3001-19.991-51.3001s6.459 16.1597 1.612 30.2976c-4.842 14.1325-14.335 14.7395-23.63 14.7395h-33.927l-2.422-1.41h-54.737-5.478-54.7322l-2.4262 1.41h-33.927c-9.2904 0-18.7831-.607-23.6354-14.7395-4.8425-14.1379 1.6223-30.2976 1.6223-30.2976s-29.28665 27.6692-19.9962 51.3001c0 0 3.8365 12.925 22.8218 20.598 18.9854 7.673 29.2818 11.105 29.2818 11.105l.4044 2.224s6.8643 11.312 36.9597 21.411l-2.017-3.437.202-3.225s7.673 7.264 24.637 11.1l-1.415-2.825v-2.826l24.873 14.212z" stroke="#fff" stroke-width="4.75866"/><path d="m149.869 187.768 24.874-14.212v2.825l-1.416 2.826c16.959-3.832 24.637-11.1 24.637-11.1l.202 3.23-2.022 3.432c30.096-10.099 36.965-21.412 36.965-21.412l.404-2.214s10.297-3.432 29.287-11.115c18.98-7.673 22.817-20.593 22.817-20.593 9.29-23.6352-19.996-51.2995-19.996-51.2995s6.46 16.1548 1.617 30.2927c-4.847 14.1378-14.34 14.7448-23.63 14.7448h-33.932l-2.422-1.411h-54.732-5.483-54.732l-2.4262 1.411h-33.9221c-9.2954 0-18.788-.607-23.6404-14.7448-4.8425-14.1379 1.6224-30.2927 1.6224-30.2927s-29.29162 27.6643-19.9962 51.2995c0 0 3.8414 12.92 22.8218 20.593 18.9853 7.683 29.2867 11.115 29.2867 11.115l.4044 2.214s6.8643 11.313 36.9496 21.412l-2.012-3.432.198-3.23s7.677 7.268 24.636 11.1l-1.41-2.826v-2.825l24.873 14.212z" fill="#002b5c"/><path d="m25.2824 248.304c-14.5373 0-16.75634-4.399-16.75634-25.515 0-21.051 3.18554-25.44 12.15064-25.44 6.8199 0 8.5261 3.043 9.6997 4.749v-4.33h9.4236v18.951h-9.5271c-.2367-6.139-2.6284-6.83-5.4639-6.83-3.1806 0-4.369 1.889-4.369 12.55.2367 10.593 1.6519 12.728 4.6057 12.728 5.7597 0 4.5615-3.778 4.7982-9.493h10.6613c1.1835 19.168-4.2655 22.63-15.2228 22.63z" fill="#fff"/><path d="m25.2824 248.304c-14.5373 0-16.75634-4.399-16.75634-25.515 0-21.051 3.18554-25.44 12.15064-25.44 6.8199 0 8.5261 3.043 9.6997 4.749v-4.33h9.4236v18.951h-9.5271c-.2367-6.139-2.6284-6.83-5.4639-6.83-3.1806 0-4.369 1.889-4.369 12.55.2367 10.593 1.6519 12.728 4.6057 12.728 5.7597 0 4.5615-3.778 4.7982-9.493h10.6613c1.1835 19.168-4.2655 22.63-15.2228 22.63z" stroke="#fff" stroke-width="3.18559"/><path d="m129.462 209.603-8.319 37.724h-10.661l-3.955-20.612-4.645 20.612h-9.9123l-8.5951-37.665h-4.162v-11.889h17.1953v11.825h-2.3769l3.9647 21.767 4.1373-21.767h-2.1451v-11.825h16.0361v11.825h-2.598l4.398 21.767 3.857-21.767h-2.126v-11.825h13.891v11.83z" fill="#fff"/><path d="m129.462 209.603-8.319 37.724h-10.661l-3.955-20.612-4.645 20.612h-9.9123l-8.5951-37.665h-4.162v-11.889h17.1953v11.825h-2.3769l3.9647 21.767 4.1373-21.767h-2.1451v-11.825h16.0361v11.825h-2.598l4.398 21.767 3.857-21.767h-2.126v-11.825h13.891v11.83z" stroke="#fff" stroke-width="3.18559"/><path d="m155.929 224.811h-3.989v10.509h4.344c7.145 0 6.44-10.509-.355-10.509zm-.705-15.173h-3.284v9.261h3.526c5.616 0 5.863-9.261-.242-9.261zm.33 37.684h-18.724v-11.978h4.404l-.025-25.751h-4.265v-11.825h16.692c14.67 0 18.048 4.488 18.048 12.259 0 8.186-2.667 10.243-9.911 11.919 8.146 1.179 10.74 4.798 10.74 11.643 0 9.7-4.285 13.733-16.959 13.733z" fill="#fff"/><path d="m155.929 224.811h-3.989v10.509h4.344c7.145 0 6.44-10.509-.355-10.509zm-.705-15.173h-3.284v9.261h3.526c5.616 0 5.863-9.261-.242-9.261zm.33 37.684h-18.724v-11.978h4.404l-.025-25.751h-4.265v-11.825h16.692c14.67 0 18.048 4.488 18.048 12.259 0 8.186-2.667 10.243-9.911 11.919 8.146 1.179 10.74 4.798 10.74 11.643 0 9.7-4.285 13.733-16.959 13.733z" stroke="#fff" stroke-width="3.18559"/><path d="m193.884 210.593c-3.95 0-4.433 2.856-4.433 11.431 0 8.852.483 13.329 4.433 13.329 4.068 0 4.546-4.477 4.546-13.329 0-8.575-.478-11.431-4.546-11.431zm0 37.986c-14.005 0-16.046-6.13-16.046-25.929 0-19.725 2.041-25.859 16.046-25.859 14.128 0 16.16 6.134 16.16 25.859 0 19.799-2.032 25.929-16.16 25.929z" fill="#fff"/><path d="m193.884 210.593c-3.95 0-4.433 2.856-4.433 11.431 0 8.852.483 13.329 4.433 13.329 4.068 0 4.546-4.477 4.546-13.329 0-8.575-.478-11.431-4.546-11.431zm0 37.986c-14.005 0-16.046-6.13-16.046-25.929 0-19.725 2.041-25.859 16.046-25.859 14.128 0 16.16 6.134 16.16 25.859 0 19.799-2.032 25.929-16.16 25.929z" stroke="#fff" stroke-width="3.18559"/><path d="m58.9491 210.593c-3.9549 0-4.4283 2.856-4.4283 11.431 0 8.852.4734 13.329 4.4283 13.329 4.0732 0 4.5515-4.477 4.5515-13.329 0-8.575-.4783-11.431-4.5515-11.431zm0 37.986c-14.0097 0-16.0414-6.13-16.0414-25.929 0-19.725 2.0317-25.859 16.0414-25.859 14.1231 0 16.1597 6.134 16.1597 25.859 0 19.799-2.0366 25.929-16.1597 25.929z" fill="#fff"/><path d="m58.9491 210.593c-3.9549 0-4.4283 2.856-4.4283 11.431 0 8.852.4734 13.329 4.4283 13.329 4.0732 0 4.5515-4.477 4.5515-13.329 0-8.575-.4783-11.431-4.5515-11.431zm0 37.986c-14.0097 0-16.0414-6.13-16.0414-25.929 0-19.725 2.0317-25.859 16.0414-25.859 14.1231 0 16.1597 6.134 16.1597 25.859 0 19.799-2.0366 25.929-16.1597 25.929z" stroke="#fff" stroke-width="3.18559"/><path d="m248.293 209.599-9.754 15.667.04 10.084h4.566v11.973h-19.809v-11.973h4.946l-.034-10.084-11.51-15.667h-2.599v-11.83h17.319v11.83h-3.279l5.814 10.701 6.948-10.701h-4.922v-11.83h16.249v11.83z" fill="#fff"/><path d="m248.293 209.599-9.754 15.667.04 10.084h4.566v11.973h-19.809v-11.973h4.946l-.034-10.084-11.51-15.667h-2.599v-11.83h17.319v11.83h-3.279l5.814 10.701 6.948-10.701h-4.922v-11.83h16.249v11.83z" stroke="#fff" stroke-width="3.18559"/><path d="m275.904 248.158c-3.954 0-8.901-1.805-11.164-4.389v3.555h-9.71v-17.688h9.809v1.514c-.099 4.837 9.335 6.835 9.379 0 .01-3.422-1.82-5.222-9.054-8.083-5.543-2.297-10.183-4.319-10.183-13.314 0-8.99 3.738-12.604 10.41-12.604 3.506 0 6.559 2.465 8.827 4.902v-4.281h10.286v17.279h-10.286v-1.321c0-.701-.676-3.694-3.398-4.133-4.211-.68-5.074 2.037-5.074 3.99 0 3.141 7.367 5.631 9.251 6.43 9.803 4.177 11.539 5.77 11.539 13.995 0 8.294-2.372 14.148-10.632 14.148z" fill="#fff"/><path d="m275.904 248.158c-3.954 0-8.901-1.805-11.164-4.389v3.555h-9.71v-17.688h9.809v1.514c-.099 4.837 9.335 6.835 9.379 0 .01-3.422-1.82-5.222-9.054-8.083-5.543-2.297-10.183-4.319-10.183-13.314 0-8.99 3.738-12.604 10.41-12.604 3.506 0 6.559 2.465 8.827 4.902v-4.281h10.286v17.279h-10.286v-1.321c0-.701-.676-3.694-3.398-4.133-4.211-.68-5.074 2.037-5.074 3.99 0 3.141 7.367 5.631 9.251 6.43 9.803 4.177 11.539 5.77 11.539 13.995 0 8.294-2.372 14.148-10.632 14.148z" stroke="#fff" stroke-width="3.18559"/><g fill="#002b5c"><path d="m25.2824 248.304c-14.5373 0-16.75634-4.399-16.75634-25.515 0-21.051 3.18554-25.44 12.15064-25.44 6.8199 0 8.5261 3.043 9.6997 4.749v-4.33h9.4236v18.951h-9.5271c-.2367-6.139-2.6284-6.83-5.4639-6.83-3.1806 0-4.369 1.889-4.369 12.55.2367 10.593 1.6519 12.728 4.6057 12.728 5.7597 0 4.5615-3.778 4.7982-9.493h10.6613c1.1835 19.168-4.2655 22.63-15.2228 22.63z"/><path d="m129.462 209.603-8.319 37.724h-10.661l-3.955-20.612-4.645 20.612h-9.9123l-8.5951-37.665h-4.162v-11.889h17.1953v11.825h-2.3769l3.9647 21.767 4.1373-21.767h-2.1451v-11.825h16.0361v11.825h-2.598l4.398 21.767 3.857-21.767h-2.126v-11.825h13.891v11.83z"/><path d="m155.929 224.811h-3.989v10.509h4.344c7.145 0 6.44-10.509-.355-10.509zm-.705-15.173h-3.284v9.261h3.526c5.616 0 5.863-9.261-.242-9.261zm.33 37.684h-18.724v-11.978h4.404l-.025-25.751h-4.265v-11.825h16.692c14.67 0 18.048 4.488 18.048 12.259 0 8.186-2.667 10.242-9.911 11.919 8.146 1.179 10.74 4.798 10.74 11.643 0 9.7-4.285 13.733-16.959 13.733z"/><path d="m193.884 210.593c-3.95 0-4.433 2.856-4.433 11.431 0 8.852.483 13.329 4.433 13.329 4.068 0 4.547-4.477 4.547-13.329 0-8.575-.479-11.431-4.547-11.431zm0 37.986c-14.005 0-16.046-6.13-16.046-25.929 0-19.725 2.041-25.859 16.046-25.859 14.128 0 16.16 6.134 16.16 25.859 0 19.799-2.032 25.929-16.16 25.929z"/><path d="m58.9491 210.593c-3.9549 0-4.4283 2.856-4.4283 11.431 0 8.852.4734 13.329 4.4283 13.329 4.0732 0 4.5515-4.477 4.5515-13.329 0-8.575-.4783-11.431-4.5515-11.431zm0 37.986c-14.0097 0-16.0414-6.13-16.0414-25.929 0-19.725 2.0317-25.859 16.0414-25.859 14.1231 0 16.1597 6.134 16.1597 25.859 0 19.799-2.0366 25.929-16.1597 25.929z"/><path d="m248.293 209.599-9.754 15.667.04 10.084h4.566v11.973h-19.809v-11.973h4.946l-.034-10.084-11.51-15.667h-2.599v-11.83h17.319v11.83h-3.279l5.814 10.701 6.948-10.701h-4.922v-11.83h16.249v11.83z"/><path d="m275.904 248.158c-3.954 0-8.901-1.805-11.164-4.389v3.555h-9.71v-17.688h9.809v1.514c-.099 4.837 9.335 6.835 9.379 0 .01-3.422-1.82-5.222-9.054-8.083-5.543-2.297-10.183-4.319-10.183-13.314 0-8.99 3.738-12.604 10.41-12.604 3.506 0 6.559 2.465 8.827 4.901v-4.28h10.286v17.279h-10.286v-1.321c0-.701-.676-3.694-3.398-4.133-4.211-.68-5.074 2.037-5.074 3.99 0 3.141 7.367 5.631 9.251 6.43 9.803 4.177 11.539 5.77 11.539 13.995 0 8.294-2.372 14.148-10.632 14.148z"/></g><path d="m83.2779 127.299c2.7418-5.287 4.5762-9.671 5.4638-11.914l-.3896-.015h-40.3968c-24.8436-4.246-19.9962-36.151-19.9962-36.151s-14.9417 15.7504-10.4986 29.883c4.4381 14.148 18.5809 18.182 30.0905 18.182h35.7269z" fill="#fff"/><path d="m150.15 185.152c3.861-2.056 32.664-19.454 32.664-19.454l-3.609 9.552c17.022-6.583 28.098-16.534 28.098-16.534-.799 3.526-3.615 9.468-3.615 9.468 23.764-8.586 25.46-16.056 25.46-16.056-15.548-15.554-23.625-38.375-23.625-38.375h-52.834-5.247-52.838s-8.0725 22.821-23.6306 38.375c0 0 1.6964 7.47 25.4601 16.056 0 0-2.8059-5.942-3.6097-9.468 0 0 11.0752 9.951 28.0982 16.534l-3.615-9.552s28.809 17.398 32.665 19.454z" fill="#fff"/><path d="m216.852 127.299c-2.747-5.287-4.577-9.671-5.464-11.914l.389-.015h40.392c24.844-4.246 20.001-36.151 20.001-36.151s14.942 15.7504 10.499 29.883c-4.443 14.148-18.576 18.182-30.09 18.182h-35.727z" fill="#fff"/><path d="m229.148 152.125c-.019-.015-.029-.03-.044-.045l-6.08.39-9.399-5.814-125.7916-2.111-10.3606 8.004-6.4352-.489c-.0198.02-.0395.045-.0642.065 0 0 1.6915 7.47 25.4552 16.061 0 0-2.801-5.943-3.6097-9.478 0 0 11.0801 9.956 28.1031 16.539l-3.615-9.552s28.809 17.403 32.665 19.454h.178c3.856-2.051 32.659-19.454 32.659-19.454l-3.604 9.552c17.017-6.583 28.098-16.539 28.098-16.539-.804 3.535-3.615 9.478-3.615 9.478 23.764-8.591 25.46-16.061 25.46-16.061z" fill="#fd0"/><path d="m205.36 126.735s8.718 16.45 17.851 25.741c0 0-3.541 5.513-11.761 7.816l3.205-11.273s-17.19 13.082-27.708 17.767c0 0 2.953-8.388 3.777-11.179l-40.574 24.38h-.178l-40.574-24.38c.823 2.791 3.792 11.179 3.792 11.179-10.533-4.685-27.7187-17.767-27.7187-17.767l3.2053 11.273c-8.2253-2.303-11.766-7.816-11.766-7.816 9.1327-9.291 17.8512-25.741 17.8512-25.741z" fill="#002b5c"/></g></svg>