<svg fill="none" height="172" viewBox="0 0 119 172" width="119" xmlns="http://www.w3.org/2000/svg" xmlns:xlink="http://www.w3.org/1999/xlink"><clipPath id="a"><path d="m0 0h118.951v171.566h-118.951z"/></clipPath><g clip-path="url(#a)"><path d="m118.557.031311h-118.5313652v113.354689c0 5.585 1.2035252 11.071 3.5756952 16.314 2.29919 5.085 5.57482 9.652 9.73277 13.572 8.136 7.677 17.319 13.784 28.0671 18.672l3.5563 1.556c5.1101 2.205 12.83 5.532 14.1892 7.572l.3577.539.3617-.539c1.3592-2.04 9.0775-5.367 14.1876-7.572l3.5563-1.556c10.7481-4.888 19.9319-10.994 28.067-18.672 4.158-3.92 7.432-8.487 9.733-13.572 2.374-5.243 3.576-10.729 3.576-16.314v-113.354689h-.431z" fill="#e2231b"/><path d="m118.122.896606v112.488394c0 5.461-1.177 10.829-3.497 15.959-2.256 4.983-5.464 9.459-9.539 13.3-8.0664 7.609-17.1731 13.663-27.8345 18.515l-3.5392 1.547c-5.4459 2.348-12.1382 5.233-14.2063 7.438-2.0664-2.205-8.7564-5.09-14.2047-7.438l-3.5391-1.547c-10.6614-4.852-19.7682-10.905-27.8327-18.515-4.07532-3.841-7.28608-8.316-9.53742-13.3-2.32432-5.131-3.498647-10.498-3.498647-15.959v-112.488394h117.229567z" fill="#fff"/><path d="m59.5108 143.887c1.034-1.555 3.5741-2.966 11.6598-6.519 7.8667-3.458 15.4771-8.193 23.0843-15.37 5.3096-5.006 8.3091-11.667 8.3091-18.33v-69.0127h-86.1092v69.0127c0 6.663 3.0007 13.324 8.3087 18.33 7.6072 7.177 15.2176 11.912 23.0843 15.37 8.0873 3.553 10.6233 4.964 11.663 6.519z" fill="#e2231b"/><path d="m70.6532 51.5485c.2595.39.4306 1.2108.519 2.1605 1.0381-.8629 1.7299-2.0745 2.5068-3.2391.4323.2579.7364.3422 1.167.3422v-.386c.738-.4323 1.0381-1.2133 1.0803-1.5993.0422-.3901-.2579-.5207-.5612-.6497-.3017-.1305-.9943-.6479-1.7299-1.4241-1.0364 1.6837-2.1167 3.7177-2.982 4.7963m-12.4481 2.1183c.5175.7348.9481.9513 1.5531 1.2133.3463-1.5134 1.2976-2.7704 2.4646-3.6779-.4752-1.4687-.7802-3.5433-.7802-5.3615-.6901.5612-1.7688.9513-2.6763.9959.3439 3.1986-.0446 5.4888-.5612 6.8302zm-26.2277-10.5178c.3439 1.094.5174 1.9585.4598 2.2456-.0576.2904-.1151 1.0381.4615.9821.5766-.06 2.0761-.5766 2.8223-.7518.7518-.1711 3.7484-.8629 5.1312-1.094.1751-1.0957.2903-2.1897.06-2.48-.2303-.2863-.6918-.4599-1.2109 0-.5206.4614-1.2684.8077-2.1337.5766-.8629-.2303-1.6147-.5174-2.7663-.5174-1.1532 0-2.3049.6325-2.8223 1.038m-1.7899 1.0941c.5207 1.4419.7518 2.2489.1752 4.0331 1.3844.06 3.1678-.2303 4.381-.4014 1.2076-.1752 3.9772-.5767 5.7054-.6367.1152-.4598.2303-1.0916.2863-1.6131-2.2457.5767-4.3234 1.1533-5.9925 1.2684-1.6747.1152-2.536.1728-3.1126-.1151-.5766-.2863-.5207-.4015-.2903-.8078.2303-.4014.2903-.9789.2303-1.3819-.056-.4015-.1711-.8078-.3463-1.0381-.4014.2903-.7477.5207-1.0381.6918m-5.0403 26.1126c-1.0673-1.1249-1.9035-2.1054-2.4201-2.7104-.5206-.6034-.8386-1.094-1.2724-1.18-.4307-.0884-1.2076-.1176-1.7842.1711-.5767.2904-.8962.9513-1.2109 1.815-.3171.867-1.0673 2.1913-1.7298 3.1718.4614 2.3357.3747 3.7177.0308 5.6478.8053.6918.9764 1.3268.6901 2.2181.2863.2303.5483.4055.6918.9538.1444.5458-.1443 1.1824-.4614 1.8434-.3155.6609-.9513 1.9034-1.3536 2.5643-.4055.6634-.7493 1.1533-1.3819 1.1825-.6367.0268-.8078-.4347-1.1265-1.0673-.3171-.6342-.7786-1.6131-1.094-2.4492-.661-.0868-.7494-.4899-.8922-.867-.1459-.3706-.2611-.6901-.2035-1.1224.0576-.4306.519-1.1516.6609-1.4687.1444-.3155-.2019-.7494-.4574-.9513-.4768-.369-.7801-.9229-.9513-1.3819-.1751-.4615-.1751-1.4996-.1151-2.3649.0559-.8629.2863-1.1249 1.0072-2.1013.721-.9822 2.5361-4.4102 3.5741-6.3996 1.0365-1.9878 1.2108-3.1703 1.3268-3.862.1152-.6918.3731-.8078.6918-.8937.3155-.0884.6902-.1152 1.1824-.3188.4866-.2003 1.1225-.5458 1.8151-.5174 1.0364.0446 1.2384.5174 1.7842.867.5498.3422 1.9034 1.1532 3.3721 2.0453 1.4728.8921 2.626 1.6131 3.6625 2.6512.4614-.2611 1.094-.5207 1.7858-.8361.6918-.3171 1.2416-.6918 1.6131-1.1533.3771-.4614.4347-1.094.6058-2.42.1752-1.3268.4615-3.0567.9821-4.2391.5174-1.1784 1.7842-2.1013 3.6025-3.7452 1.815-1.6415 2.0745-3.1102 2.2181-4.8693-1.1801-.06-3.9464.2004-4.7273.2304-.7786.0292-3.6601.0843-4.4078.1151-.7494.0292-1.3552.1711-1.6172-.2303-.2595-.4055-.1151-.8937.1152-1.6439.2303-.7477.2903-1.4687.146-2.3608-.6918.4014-1.0981.4014-1.8742.5174-.777.1152-1.1225-.1752-1.4396-.5174-.3187-.3496-.575-1.0673-.6901-1.5588-.1152-.4898.0843-.7769.2303-.9512.2287.3171.4598.4322.8053.4322.3463 0 .4015-.4614.4882-.8629.0884-.4055.2904-.3747.6651-.3747.3714 0 .4014-.3171.2303-.5206-.1752-.2004-.4347-.4883-.8362-.6326-.4014-.1444-.7518-.0292-.8937.2019-.1443.2303-.4598.661-.6902.9205-.2303.2612-.5206.5766-.7801.6074-.2579.0292-.7786-.2887-1.1533-.4038-.373-.1152-.6326-.0885-.7477-.0885-.1152 0-.2595.0309-.3155-.1711-.06-.2035-.1752-.4347-.2035-.9229-.0268-.4898.0291-1.2668.0575-1.6723.0268-.3714-.1176-.6172-.2035-.7477-.2004-.3187-.1711-.4599.0308-.7494.313-.446 1.2668-1.0072 2.3649-1.6723 1.0916-.6634 2.5644-1.5838 3.4873-2.2164.9205-.6367 1.669-1.0981 2.218-1.3844.5483-.2903 1.0941-.3479 1.3244-.3747.2303-.0292.1444-.2303.2303-.6366.1209-.5669.9513-.9513 1.9035-1.3228.9496-.3771 2.2456-.8961 3.4872-1.5433.5653-.296.5175-.8037.4883-1.0227-.0422-.3463-.0268-.7055.06-.9229.0843-.2149.4014-.519.7493-.7785.1266.1289.3463.3041.6886.5636.3495.2579.6058.5174.9959 1.1687 1.2976-.5653 1.7745-1.6877 2.3357-2.682 1.5555 1.4687 1.3819 2.8531 1.3381 3.7606.7364-.3885 1.6439-.6918 2.3357-.7364.6918-.0422 1.815.3041 2.3341.3041-.1728.4769-.6497.6918-1.0803.9943 1.5571.0446 3.2854.4347 3.9772 1.2554.6917.8232 1.4687 1.3844 2.1605 1.6845.6918.3017 1.6877.5206 2.1183.6918.4323.1751.6918.4322 1.0827.7785.386.3439.648.8208.8207 1.0365.1711.219.5174.6058.648 1.1265-.1711-.2149-.648-.4347-.9943-.3041.1728.1727.2579.4306.3463.7347-1.0802-.519-1.9034-.4752-2.2489-.4306-.3463.0405-.3901.1711-.2149.3017.1711.1289.648.6455 1.0381 1.1224.3901.4744.8629 1.2108 1.3381 1.7282.4769.5207.9513.3058 1.2571.2612.3-.0422.8207-.1306 1.2514-.2612-.2596.6959-.996 1.2571-1.6861 1.9472l.2149.3463-.1711.0868c-.1712-.1752-.3463-.3041-.648-.6058-.3041-.3017-.5207-.1306-.5207.1727 0 .9173.5612 2.3779 1.3398 2.463.7802.0884 2.2489-1.0786 3.5027-2.0299-.0422-.3041-.0868-.7769-.0422-1.2538.5174-.3041 1.5134-.8653 2.2919-.9959.777-.1306 1.382.0884 1.7729.1306.386.0446.7323 0 .7323-.3017 0-.3058-.5174-.7364-1.3382-1.1225-1.4014-.665-1.7744-1.1264-2.7663-2.5108.3017-.9075 1.0365-2.2457 1.6399-3.1126l.4768.1306c.7348-.5613.4347-1.2539 1.2108-2.1184.5726-.6382 1.5134-1.2976 3.0681-1.3398l.1752-.9959c-2.8969.3058-2.7242-1.815-2.7242-2.6357s.4728-2.2489 1.7299-2.2489c1.3819 0 2.2456 1.0397 3.4986.9513.9943-.0673 1.7745-.386 2.8969-.2579 1.1249.1265 2.0745.8629 2.8547 1.7298.777.863 2.03 2.6763 3.3722 3.9739 1.3381 1.2976 3.3275 1.2977 4.235 1.4282.9075.1306 2.2489.1306 3.0258.5612.7786.4323 1.9894 1.6877 2.5514 2.5952.5613.9075.4769 1.815.215 2.5912 1.4727.6917 1.9034 2.4646 1.9456 3.287.0446.8207-.3885 2.3778-.4729 2.5514-.0884.1727-.8669.8207-1.6438 1.3819-.7802.5612-1.5572.9943-1.9894 1.0827-.4307.0844-1.2976-.1306-1.944-.3057-.6496-.1712-1.3422-.4753-1.6439-.5175-.3041-.0446-.7364.2174-.9513.0868s-.5612-.8653-.8232-1.5993c-.09-.2579-.3-.519-.4306-.6058-.129-.0868-.3041-.2149-.3041-.386 0-.1752.2595-.3496.8653-.3496s.7364-.2579.9075-.7323c.1752-.4769-.1306-.8653-.6058-1.1265-.4769-.2579-.6918-.5612-.8629-.948-.1752-.3901-.6496-.6918-.9959-.867-.3463-.1711-1.1224.0446-1.944-.2149-.8231-.2596-1.3397-.8629-1.4703-1.5571-.129-.6918.3017-1.2539.9075-1.5555 0-.5613-.2595-.9075-.5174-.9959-.2596-.0868-.8208.1305-1.4704.1305-.648 0-1.2092-.648-1.4687-1.296-.2595-.6496-.0884-1.6877-1.0827-3.1142-.9918-1.4241-2.8109-1.7704-4.9657-1.7704l-.0844 1.901c2.5449.2595 3.626 2.2473 3.8409 4.0217.2303 1.9035-.6058 2.8937-1.4265 3.845-.1306.9959-.0868 1.5571.4306 2.1183.5207.5636 1.3844.3901 2.034.3463 0 .1752-.1306.3058-.3058.4323.6521.519 1.1281 1.1248 1.3844 1.4265.2595.3057.1752.5612 0 .8232 1.2108 1.3381 2.2935 2.982 3.3316 4.8408.3861.0446.7323.0844.9051.3463.1727.2595.7785 1.2977 1.0802 1.944.3042.6521.129 1.1265-.1711 1.7323-.3017.6034-.9943 1.4687-1.3422 1.6861-.3438.2149-.5612-.0463-.8232-.2174-.6479.8232-1.8547 1.815-2.0745 2.0299-.2149.219-.0405.6075-.0405.867s-.1306.4307-.348.5612c-.2149.1306-2.5935 1.5572-4.1928 2.4647 0 1.1686-.7364 1.6439-1.5134 2.1605.5613 1.815.0844 2.4646-.4768 3.2869 1.8588.2596 3.849.9513 4.7557 1.5977.9075.648.8653 1.1687.7769 1.7299 1.2133.6918 2.1646.9918 3.3316 1.4265.8232-.4347.6034-1.1459.369-1.7112-.2976-.7169-1.1897-1.446-1.8823-2.0072 1.5977-.2149 2.9374.5174 3.9771 1.0381 1.034.5174 2.1167 1.2108 3.5433 1.4687 1.4281.2595 3.068-.1711 4.7557-.8207 1.6836-.648 1.8588-.9943 2.3357-1.3398-.4347 1.0381-1.3422 2.5068-2.034 3.3275-1.8767 2.2319-4.214 3.849-6.6551 4.7119 2.2035 2.2068 4.2797 5.1905 5.0152 7.6551 1.4242-.6918 2.1589-1.6439 2.5052-1.9894.3463-.3463 1.2092-1.1671 2.2051-1.1671.9943 0 1.2092.3018 1.6399 1.2093-1.2076.0446-1.8548.3462-2.8069 1.2554-.9513.9075-1.2538 2.3762-1.2976 3.9317 3.5027.9513 6.0938 3.1564 8.303 5.8806 2.2008 2.7241 2.7228 5.7516 2.7228 7.565 0 1.8166-.347 3.8024-.737 5.1444-.388 1.342-.648 2.205-.603 3.675.042 1.467.432 2.419.994 3.239-3.3735-.513-1.9032-5.49-1.6437-7.046.2597-1.555.6057-3.5867.6057-4.7099 0-1.1249-.304-2.1646-.6478-2.5968.1711 1.3844.1265 2.8969-.129 4.4524-.2595 1.5613-1.1265 4.7173-1.3843 6.5733-.2596 1.863 0 4.41 1.2959 6.094 1.2962 1.691 2.5492 1.561 3.6752 1.513-1.297 2.165-3.3718 1.171-5.1017.261.0422.69.4323 1.642.7785 2.376-1.8588-.734-5.2747-2.418-6.269-5.444-1.2473-3.795-.9075-7.697.0446-12.0173-.9513-1.9034-1.9894-2.4241-2.8109-2.4241-.8207 0-1.9878.5207-1.9878 2.2051 0 1.6837.4753 2.2053.6497 2.5953.1711.39 1.2513 1.382 1.7241 2.678.4769 1.299.3058 2.122-.386 3.333.1711.644.648 1.898.9513 2.719.3017.823.3017 1.128.0868 1.774-.2174.65-.9075 3.245-.867 6.442.0446 3.198 1.1687 7.436 1.4282 8.86.2595 1.431-.4769 1.905-1.2133 2.684.5653 1.643.1752 2.376-.2554 2.896-.4323.514-1.2109.992-2.034 1.206 0 .478-.2149 1.213-.386 1.691-.1752.473-.5653 1.336-.9076 2.204-.8669.304-2.2951.735-3.7176.863-1.4282.13-2.2935 0-2.682-.519-.3901-.521-.1305-1.514.4769-2.938.6018-1.424 1.5133-2.376 2.4606-2.726.5206-1.381 1.2538-2.416 2.8563-3.888-.9537-2.336-.2173-3.938.4745-5.32-.219-3.198-.6497-6.615-1.4728-9.122-.8208-2.505-1.4266-2.724-2.42-3.197-.5175 1.343-1.4688 1.855-2.2895 2.163-.8232.302-1.9456.456-2.8531.675-1.3479.319-1.8742.704-2.549 1.223-.5652.438-.8669 1.171-1.3843 1.513-.5191.35-.9514.35-1.3861.609-.4322.261-.3308.744-.7323 1.165-.3617.379-.6058.348-1.0827.431-.4744.088-.4322.478-.4322 1.039 0 .564-.0422.954-.3439 1.214-.3057.259-1.3422.472-1.9034.561-.2174.301-.3017.644-.2611 1.211.0446.561.39.863 1.167 1.424-1.5977.692-2.3762-.041-2.8069-.479-.4347-.43-.6496-1.555-.6918-2.718-1.1248.561-1.2554 1.335-1.386 2.026-.1265.691-.4306.652-1.2514.652-.8231 0-1.5133-.261-1.9877-.302-.4744-.042-.9513-.302-1.4266.171-.6309.627-.0884 1.123-.5206 1.644-.4307.519-1.2538.431-2.6796.519-2.6763.16-4.2796-.909-4.5813-1.602-.3017-.691.1711-1.164.9918-1.854.8232-.692 1.5588-1.302 2.1646-1.473.386-1.514 2.8069-1.514 3.9334-1.342 1.1224.176 1.815.047 2.3762-.473.5612-.519.6496-1.294.6496-1.815s.1265-.738.3885-.909c-.8629-.131-1.7299-.775-2.1605-1.598-.4323.042-.9076 0-1.8151.432-.9115.431-.6942 1.294-.6942 2.205-.3884-.048-1.2959-.349-1.5555-.951-.3422-.798-.0867-1.903.8629-2.855.9513-.953 2.768-.994 4.3235-.905.3463-.348.9075-.607 1.5993-.607 1.6439 0 1.3422.607 3.0258.607 1.6877 0 2.7258-1 3.3722-1.951-.9481-.041-2.2895.823-3.7177.692-.6455-.052-.9943-.473-1.2092-.815-.2149-.348-.3438-.912-.6058-1.26-.2595-.342-.6058-.692-.6058-1.467 0-.778.8077-2.382 1.6723-3.635-1.0089-.975-2.4144-.052-3.0105.35-.7785.519-1.0826.39-1.4727.171-.3861-.213-.6918-.131-1.0381.13-.3439.26-1.1224.562-1.5977.562-.4768 0-1.2976-.131-1.815-.261-.5207-.129-.8232.261-.867.609 1.4128 1.265 1.6877 2.464 1.6877 3.327s-.1289 1.513-.7802 2.376c-.1711-.863-.5174-1.773-1.0364-2.334-.5174-.561-1.0786-.732-1.5133-.774-.4323-.048-1.0803-.131-1.1249.042-.0406.171.3463.388.867.602.5174.219.4306.609.2579 1.171 1.9877 1.555 1.686 2.937 1.4703 4.581-.6058-.863-1.2976-1.555-1.6877-1.945-.386-.391-.6455-.431-.8207-.52-.1711-.088-.4769-.259-1.0787-.472-.6058-.219-.5612.3-.39.691.1751.383.3017.602.1289.904.7786 1.555 1.3844 1.946 2.3779 2.424-.5174.26-1.3398.431-1.9456.431-1.3382 0-2.1184-.733-2.8531-1.514h-.4347c.1306.343.4347.604.7364.863-.7364.041-1.6439.171-2.6358-.301-.9943-.473-1.4282-1.425-1.7298-2.678-.6902-.608-.1939-2.294.0656-2.897.2612-.608 1.1038-2.204 1.8361-3.157-.2578-.561-.3016-1.47-.1265-2.203-1.9894-1.692-1.7323-2.034-1.7323-2.814-.4322-.39-1.1224-.775-1.2935-1.0831-.1752-.3017-.2611-.9918-.3463-1.6357-.3057.0405-.6058 0-.8232-.0884-.1727 1.1224-.6058 1.553-1.2538 1.7241-.2173.6091-.6058 1.2591-1.3422 1.8211-1.0283.786-1.7728.691-2.6795.734.3463-.432 1.4281-1.726 1.7282-2.158.3058-.4311.1752-.9096-.0843-1.2997-1.4282 1.1647-3.1126.8208-4.1945.5612.0868.3017.1751.6035.3901.7805-1.5134.213-2.2051-.35-3.1126-1.2136-.129 1.4676-.5613 2.5486-.9205 3.1876.8053.743.4014 2.359-.0601 3.227.3463.402.4615.863.4055 1.614.4015.111.8613.401.9765.922.1963.869-.056 1.266-1.0365 2.708-.9788 1.441-1.6706 2.017-2.1321 2.364-.4615.343-1.0364.343-1.2668.112-.2343-.229-.7518-1.727-.9821-2.708-.2303-.98.2303-1.322.5766-1.732.3463-.401.0601-.975-.2303-1.555-.2887-.573-1.094-.691-1.2668-1.844-.2344-1.567-.0713-2.695 1.0073-3.185-.9513-2.248.7421-3.9661 1.3422-5.4738.6034-1.5263.4882-2.5238.4306-3.7314-.2887.2846-.8499.7461-1.0802.6917-.2303-.0575-.6034-.4192-.6034-1.171 0-1.9805 2.0608-1.2287 2.0608-3.9739 0-1.4996-.3188-2.1208-1.0381-3.1224-.5499-.7647-1.8588-1.4338-2.3203-1.5474-.4614-.1151-1.8029-.5052-2.2051-.7364-.4039-.2303-.9513-.6479-2.0478-.6479.06-.4745.7056-1.0803 1.2263-1.2538.5174-.1728 1.6284-.0884 2.7225.0867 1.0956.1711 2.2935-.7923 2.2935-2.6357 0-1.8475-1.0981-2.9123-1.5571-3.2011-.4615-.2887-1.4704-1.0672-1.6439-1.6438-.1712-.5767-.9075-1.1533-1.6593-1.7283 1.2262-1.2959 2.8855-.7493 3.5773.2287.6902.9821 1.4979 1.2417 2.5757 1.0227-.6763-.7323-1.8588-1.944-2.922-3.0664" fill="#000"/><path d="m33.8216 90.0669c.6918.2595 1.3381.8208 1.6844 1.4728 1.0827-.9959 2.1646-1.7745 3.6738-2.0778 1.5166-.3017 3.0275-.1752 4.3235.1728-.3885.8207-.5174 1.7298-.3885 2.3778-.3438.3001-.6034.9919-.6034 1.4241l-.6496-.1306c-.2173-.7323-.4322-1.2935-1.9455-1.1224-.777-.8629-1.5134-1.296-2.2895-1.2092-.7786.0868-1.7745.9959-2.2919 1.5109-.8207.0462-1.4266.0884-1.944.519-.5206.4323-.8231.9116-1.4281 1.1225.1711-1.3357.2595-2.0259 1.8588-4.0599z" fill="#e2231b"/><path d="m60.1905 88.5536c1.2976 0 2.9415.0446 3.7176.7785-.777.6496-1.6845 1.0365-3.7176.7348-.0868-.6058-.0422-1.1224 0-1.5133z" fill="#e2231b"/><path d="m92.9168 95.4698c-.6918-1.1224-2.3763-1.2936-2.9821-2.9853-.6058-1.6804-.0446-2.7185.1711-3.1086.219-.3901.6496-.9075 1.6439-.9075.8654 1.5555 1.2538 2.5912 1.1671 7.0014z" fill="#e2231b"/><path d="m33.674 71.0781c.7477.6594.5499 1.4671.725 2.5028.1712 1.0381.9205 4.3235 3.862 6.917 2.9374 2.5936 5.9349 3.4565 8.5853 4.2675.2303-.2303.5766-.6366.8077-.8669-5.8189-1.6131-7.8375-5.7638-8.359-8.7029-.5174-2.9391.3463-5.1312 1.0981-6.6859.7494-1.5571 2.8799-3.7484 3.9772-4.7257 1.094-.9821 1.3592-2.1167 1.184-2.8085-.6901.9229-1.9918 1.8264-2.9723 2.2878-.9789.4615-2.1321.9822-2.9974 1.6723-.863.6918-1.0941 1.3844-1.6147 1.961-.5191.575-1.6131 1.7842-3.3414 2.0746-1.7298.2863-2.2489-.9821-2.8263-2.1897-.4614.9205-.2863 1.669.06 2.2456.3439.5766.575 1.2108.2863 2.42-.2863 1.2109-2.017 1.9627-3.287 2.249-1.2651.2903-1.7842.2303-2.536-.056-.7477-.2904-1.1784-1.1224-1.7112-1.5011-.446-.3171-1.386-.4883-1.9091.017.2214.2271.5904.5766.7826.7923.3901.4323.3617.8629.8783 1.3244.5191.4614.9805.7518 1.6131 1.3819 1.2684 1.2684 1.3268 2.48 1.0981 3.9196-.206 1.2684-1.0673 1.901-1.7298 2.1053-.7494.2287-1.7883.0617-2.4801-.0535-.6901-.1151-1.3689.0113-1.5206.502.5174 0 1.1192.6188 1.6358.85.5206.2287 1.6723.4598 2.9974 1.0364 1.3268.5766 2.0186 1.9034 2.3649 2.8815.3463.9821.2303 2.5952.056 3.1126-.1711.5191-.5174.7494-1.2092 1.3819-.6902.6326-.4599 1.0398-.2888 1.442.2304-.1111.5767-.3479.8094-.6902.4574.863.9789-.1711 1.4396-.6918.4614-.5206 1.7882-1.7282 3.1702-2.0169 1.3843-.2887 2.2472.1728 3.3429 1.2652.6326-.6326 1.7858-1.1517 2.9374-1.5531 1.1533-.4039 3.287-.4615 5.3056-.2303.1152-.2303.3463-.5207.4615-.7494-2.0746-.6326-5.1791-1.1613-6.9746-1.3843-1.9894-.2442-3.8044-.4753-5.2618-.7324-1.721-.3074-2.8085-.7802-3.3275-.9959-.5053-.2093-1.1768-.725-1.5223-.9554-.3463-.2303-.9691-.3958-1.3033-.5442-.5174-.2303.4615-.1054 1.0381.125.5791.2303 1.5571 1.0883 3.3454 1.6049 1.4898.4347 3.8044.7494 5.8789.9805 2.0746.2304 5.3023.7477 8.359 1.6147.1711-.1752.3593-.4055.7056-.5766-.056-.3463-.056-.7015.06-1.0478-2.163-.4866-4.1677-1.0859-6.3282-1.9497-2.6244-1.0534-4.2643-1.759-7.2342-3.922-2.0299-1.4784-3.6333-3.458-4.0355-3.9755-.4039-.5206-.9805-1.2684-.9205-1.4419.056-.1711.6326.7494 2.1897 2.3649 1.5571 1.613 4.823 4.2277 8.1279 5.7053 3.8027 1.6991 7.1376 2.5449 8.4911 2.832.2003-.2595.5247-.5442.871-.7745-1.0956-.2863-2.9082-.8475-4.5773-1.5993-1.6722-.7461-3.4029-1.9553-4.6697-3.1677-1.2684-1.2109-2.3073-3.2854-2.7663-4.4946-.4055-1.0608-.6366-2.3049-.6918-2.9415-.06-.6326.0057-1.2441-.1695-1.7631-.0194-.0365-.0057-.0746.0211-.0478" fill="#fff"/><path d="m57.0227 62.1409c-.3463 1.0381-.8361 1.901-1.9034 2.476-.1362.0746-.077.1249 0 .1752.4055.2595.6342.9999.6918 1.3186.777-.0811 1.6131-.1362 2.3049-.1094.2595-.7194.5385-1.4015.8264-1.9221-.738-.0365-1.4323-.3536-1.519-.8994-.0868-.5498-.2003-.9513-.2304-1.0981-.0292-.1419-.1265-.0787-.1711.06" fill="#fff"/><path d="m57.5044 66.6241c-.7421-.2789-1.4914-.2789-2.184.0406-.6918.3171-1.1533.721-1.4396 1.24-.2903.5191-.7209 1.296-1.3819 1.442-.665.1419-.9821-.146-1.1825-.2595-.4922.2595-.6366.3746-1.5838.4598-.9513.0868-2.8264 1.6147-2.5668 2.7104.4614-.0884 1.0072-.2304 1.4111-.1176.4039.1176 1.2108.7209 1.2708.9513.056.2303.1711.6342.1403 1.0673-.0251.4306-.0559.8053-.0559 1.0072l.3747.06c.3462.721.9229 1.6415 1.815 1.8434-.1444-.7769-.4039-1.759-.2287-2.7663l.4306-.0292c-.2019.1727-.2368.4306-.2368.661.6675-.3212 1.9091-.661 2.6852-.777-.0843-.2019-.167-.3463-.2425-.4841-.5936-.0325-1.1938.1597-1.828.3901-.0559-.4923-.0324-.6537.2555-.8573.2887-.2019.8937-.2862 1.2976-.0867.4039.2019.6326.5457.8629.8669.2303.3155.8078 1.2668.7786 1.6131-.0268.3463-.0868 1.0632-.202 1.4687.3463-.06.6058-.3747.9513-.9513.3463-.5766.5483-.8077.3463-1.4687-.2019-.661-.5206-1.2133-.4898-1.8434.0292-.6366.4306-1.3284 1.2384-1.6747.8077-.3439 1.0113-.2304 1.5571.1151.5482.3463 1.0673.8362 1.5279 1.4728.4615.6326.6942 1.4858 1.5572 1.6707.4014.0843.6609-.202.7785-.4615-.5515-.5174-.8077-.8361-.6918-1.4128.1152-.5766.777-.9229 1.4979-.8077-.1443-.4306-.6609-1.0072-1.1532-1.4687-.4899-.4615-1.0365-.6918-.8053-1.1225.2303-.4346.7477-.4055 1.094-.4347-.0868-.6033-.3771-1.094.7769-2.0169-.1151-.6902-.5458-1.4979.7802-2.7647-.4614-.5515-.8572-.867-.8077-1.5588.0267-.4014 0-.7769-.0292-1.038-.0292-.2595-.3171-.0576-.4615.0308-.146.0868-.6058.2303-1.2384.2303-.6366 0-1.2108-.2303-1.4728-.1752-.2595.06-.0843.2036.0601.4055.1459.2003.4014.7478.3746 1.1517-.0291.4014-.0884 1.4395-.4038 1.8742-.3171.4322-1.0941 1.2092-2.1338 1.6991-1.038.4898-1.4995.6917-1.8458.8077-.3439.1151-.9205.1443-1.2936.7209-.3746.5767-.3673 1.2936-1.313 1.4842-.1443.0292-.0291-.146.1152-.3463.146-.2019.3017-.6212.5328-1.0227.2303-.4055.3463-.721 1.0957-.9513.7477-.2303 1.0673-.2595 1.665-.588" fill="#fff"/><path d="m41.6599 70.2687c.8653-.0884 1.7883.2304 2.4492 1.0073.6634.7786.5483 1.2384 1.2976 2.2765.7478 1.0381 1.0673 1.4419 1.5839 1.9034-.5174.2595-.9513.1711-1.2668.2595-.3171.0868-1.094.4323-1.094 1.0648 0 .6367.4898 1.4031 1.9529 1.5247.8345.069 2.8028-.888 4.012-1.9261.15.1598.4039.4306.519.6058-1.0956.8362-2.0745 1.4396-2.9415 1.7591-1.0916.3982-1.536.5174-2.3892.2579-1.2416-.3731-2.0494-1.3244-2.0777-2.682-.0268-1.3536.0292-2.4476-.056-3.1678-.0868-.721-.2457-1.1978-.5766-1.5279-.0868-.0843-.1039.0235-.0309.1752.202.4014.3212 1.034.3463 1.3244.0309.2887.0309 1.1516 0 1.7574-.0251.6058-.2303 2.0761.1752 2.8263-.3463.4882-.6918 1.0381-.7802 1.382-.4866-.7494-.8037-1.7015-.8037-2.7955 0-1.0957.6034-2.9991.5458-3.922-.0575-.923-.5749-1.6707-.8653-2.1013" fill="#fff"/><path d="m50.3077 76.061c-.0884-.1444-.2304-.4347-.2304-.4347l-.1232-.0268c-.867.7477-1.7745 1.5052-2.4168 1.8458-.4866.2595-.8613.4015-1.3536.3463-.2611-.0324-.1938.0843.0309.1444.3154.0827.8685.0446 1.6017-.279.6172-.2693 1.0997-.5636 1.446-.8248.3155-.2368.7923-.5555 1.0462-.7712" fill="#fff"/><path d="m52.1283 75.4105c0 .2806.1095.7364.1541.9724.648-.3017 1.446-.7575 3.1742-.8232.0228-.2806-.1054-.7323-.3673-1.0129-.8208.0211-2.1143.4517-2.9602.8629" fill="#fff"/><path d="m57.7494 71.7375c.3463-.3252.9902-.5077 1.5993-.0211.3252.2579.8248.8248.9537.9513-.3.3252-.738.5823-1.0397.6918-.2595-.5847-.8864-1.5377-1.5133-1.6229" fill="#fff"/><path d="m57.0997 74.0723c.0657.2596.1963.6481.2401.863.3438-.1922.8864-.5823.927-.777.0446-.1962-.365-.236-1.1671-.086z" fill="#fff"/><path d="m51.3091 73.7058c-.2189-.2189-.3252-.4347-.1751-1.0397.1516-.6034.888-1.0786 1.2319-1.2092-.0633-.2806-.2806-.4963-.7559-.6058.129-.0657.2806-.1517.3861-.1711-.2579-.3058-.5175-.5653-.7113-.7153.4753-.0657 1.1249-.0211 1.3422.2384.2149.2595.365.4769.365.8418.3227.1306.648.3463.6269.5418-.0211.1938-.1728.2344-.4753.3649-.3017.1306-.8012.3901-1.0827.6058-.2806.2174-.6917.6269-.7534 1.1476" fill="#000"/><path d="m48.023 71.5866c-.0446-.24.0211-.3901.3017-.6269.2806-.24.5612-.3041 1.1265-.1962-.1963.3268-.3268.6918-.3495.888-.3861-.0657-.7981-.0649-1.0787-.0649z" fill="#000"/><path d="m53.9434 70.1001c.2327.296.9115.1208 1.2992.2303l.0195.1939c.15-.0844.4533-.215.7591-.3212.3016-.1095.9512-.4079 1.2537-.5174.3001-.1079.7997-.1979 1.1882-.4136.2806-.1541.2806-.2579.2806-.648 0-.2149.15-.4963.2806-.6707.1289-.1711.3803-.2247.4347-.1306.0843.1517.15.1095.2368 0 .0843-.1054.2384-.3649.4306-.6455.1963-.2823.6058-.6286.867-.8013.2595-.1711.7348-.4112.8653-.4323.1265-.0211.1265-.0843.0211-.0843-.1095 0-.3041.0632-.5417.1289-.2385.0633-.6245.2822-.8865.5174-.2595.2401-.5555.4153-.9513.6918-.3649.2612-1.017.3253-1.4241.3674-.4136.0446-1.1013.1728-1.4476.2823-.3463.1078-.631.3673-.6918.4727-.0657.1095-.219.5207-.4996.9116-.2806.3861-1.0016.8078-1.3665.7924-.1079-.0446-.1728.017-.1249.077" fill="#000"/><path d="m56.2864 68.5243c.0292-.1752.2749-.3747.4996-.279.227.0981.4671.2498.4995.5418.0325.2887.0965.7647-.4014.8961 0-.3228.0057-.5417-.0422-.6691-.077-.206-.2271-.2384-.313-.3252-.0884-.0843-.1882-.1224-.2425-.1646z" fill="#fff"/><path d="m56.2036 69.4676c-.0771-.0982-.1752-.4112-.1825-.4842-.0657.0405-.1305.1265-.2287.2149-.0965.0868-.1824.2482-.0519.3787.129.1266.3901.3074.5693.2806.1541-.0251.2076-.0657.2612-.1208-.0982-.0535-.2174-.0746-.3674-.2692z" fill="#fff"/><path d="m61.317 64.4604c.1135-.3041.4614-1.1224.6326-1.4703.1751-.348.39-.6326.6366-.8232.2441-.1865.446-.2271.5458-.0998.0997.129.0154.4477-.06.6213-.0714.1711-.4307.6763-.7169 1.0072-.2904.3342-.6424.7575-.7802.8962-.1152.1151-.2303.2425-.2863.3155-.06.0713-.1306.0559-.1022-.0447.0422-.1484.0868-.287.1306-.4022z" fill="#000"/><path d="m62.2505 64.7207c.1054-.142.4347-.4899.579-.6366.142-.1444.4015-.4039.5483-.4307.1443-.0292.3747.0268.3747.2003 0 .1752-.2304.2904-.3901.3926-.1598.0997-.5921.3154-.7518.386-.1557.073-.2271.0884-.3001.1289-.0714.0462-.0997.0154-.06-.0405z" fill="#000"/><path d="m61.0721 67.6176c.3463.0268.721.0268.8783.0114.1598-.0114.3901-.0114.4153.1597.0308.1728.06.4899-.0406.5328-.1022.0447-.1598.1752-.3463 0-.1865-.1711-.4055-.2733-.5345-.3463-.1265-.0713-.2862-.1711-.373-.3576" fill="#000"/><path d="m55.4145 76.0609c-.7575-.0446-1.6439.3463-2.0299.7129-.3901.3649-.8459 1.167-.7575 1.6844.3885-.1516.8418-.386 1.4898.5402.3463-.3212 1.0827-1.0576 1.8588-.4518.3042-.4558.5612-1.2976 2.1646-1.1476.2149-.8207.386-1.922 2.2246-1.7071.021-.5612.3463-1.2538.9723-1.4687-.1751-.4112-.4557-.7786-.6496-1.017-1.0153.5652-1.6414 1.0365-1.9861 1.2538-.3463.219-.9116.6707-1.2319.8653-.2823.6918-.4615 1.313-1.0608 1.8402-.1727.15-.5977.5401-1.2246.3001.1516-.4307.1865-.863.2303-1.4031" fill="#fff"/><path d="m55.9944 79.4104c-.1484-.4306-.7096-.7575-1.3357-.1054.5207.0405.9878.0632 1.3357.1054z" fill="#fff"/><path d="m63.4977 67.6736c1.2108.0211 4.6908 1.4265 4.6908 5.3177 0 3.9253-1.3973 6.4345-3.3089 8.7548-1.5976 1.944-5.531 3.9122-5.3152 8.2778-1.9651-.4111-3.0916-.7323-4.9715-.3227-.4963.1054-1.3381.4963-1.7087.798-.2369.1938-.3001.369.1094.0884.3901-.2668 1.3187-.5961 2.3357-.6942.4517-.0406 1.1435.0673 1.7939.1305.648.0657 2.0746.3901 2.7007.4964.6269.1095 1.5133.3479 2.6609-.0211 1.1435-.3674 2.0956-.7981 2.4857-1.3593.386-.5652.3017-.7801.1711-1.3421-.1306-.5613-.1922-1.3722.0446-1.7729.2806-.4768.9075-.8629 2.051-.8629 1.1476 0 5.1442-.0251 7.9105-.2401 2.7704-.2149 3.6333-.2805 5.9438-.9723 2.3146-.6902 5.1483-1.7453 6.6154-2.7201.7801-.5207 1.6877-1.1476 2.2489-1.5377.5612-.386 1.3819-1.2749 1.8377-1.6188.4517-.3463.9724-.6268 1.4898-.5863.519.0446.7802.3057.8864.5206-.7558.1501-1.7704.4096-2.4646 1.232-.6918.8207-1.1646 1.4687-1.3187 3.0915-.15 1.6187-.0405 2.4411.0446 2.8507.0868.4111.2149.7364.7575 1.017.5401.2806.5612.1711 1.1013.1711.5418 0 1.2133.4768 1.3633.9115-1.2538.1501-2.5084.3674-3.3948 1.1882-.884.8191-1.3341 1.7939-1.0089 3.3892.3228 1.6033.7923 2.0761 1.6593 2.5781.8653.4963 2.0088 1.0746 1.965 2.7185-.9723-.7323-2.2894-1.6837-3.0469-1.661-.7558.0171-1.7704.4729-2.2051 1.0592-.4306.5848-.6034 1.2765-.5612 2.1143.0446.8459.5174 1.5784.9959 2.3834.4728.798 1.296 2.092 1.5109 2.653.219.561.5637 1-.4112 2.701-.2765-1.123-.5385-2.18-1.3843-2.85 0-.43-.1444-.809-.8613-1.618-1.1687-1.325-3.1102-2.8323-6.1174-4.4583-4.4565-2.399-7.4377-3.1378-8.4296-3.6106-.9942-.4809-1.9455-1.2076-2.1337-1.5952-.146-.2961-.2538-.1501-.1573.0405.3463.6731.6918 1.2538 2.2919 1.9683 1.5976.7153 4.3007 1.6187 5.6827 2.2456 1.3819.6269 3.806 1.9457 5.2966 3.0105 1.4914 1.0572 3.0469 2.1142 3.5027 3.1972-1.5133-.154-2.8547-.219-3.9139.342-1.0575.561-2.0534 1.495-2.4857 2.441-.4306.951-.5612 1.904-.7348 2.643-.1711.732-.2368 1.488-1.1037 2.092 0-.84-.3212-1.254-.3212-1.661 0-.414.279-.887.3439-1.319.0657-.431-.0227-1.667-.4753-2.619-.4533-.951-.9513-1.382-1.8588-1.92-.9075-.544-2.1183-.817-2.9415-.863-.3463-.024-1.8588.342-2.18.496.1501-.934.3212-2.163-.2806-3.2217-.6058-1.0576-2.0129-1.3171-3.072-1.2992-1.0576.0227-1.9683.4784-2.4395 1.0169-.4769.5442-.8232 1.496-.9116 2.205-.0868.715.0446 1.277.2595 1.773-.6917-.066-1.2538-.3-1.403-.929-.1517-.627-.2149-1.666-.4112-2.3734-.1938-.7169-.7558-1.8223-1.536-2.3357-.7769-.5206-1.3187-.6917-2.3762-.6496-1.0592.0406-1.8588.4728-2.1395 1.0397-.2806.5612-.4322 1.1224-.3017 1.6609-.39-.0657-1.1475-.4079-1.0826-1.0826.0657-.6675.4768-1.3188.6269-1.5783.1516-.2595.2595-1.0575-.1939-1.9455-.4517-.8865-1.4898-1.5133-2.5068-1.4225.4307-.6748 1.0787-1.2782 2.5514-1.2538 1.292.017 2.3974.4476 3.4371 1.5952.4095.4558 1.167 1.1224 1.6187 1.6244.6058-1.3171 1.4071-2.3162 2.27-2.8295.8654-.5207 2.9602-1.0609 5.2967-.438-.648-.8402-1.1225-1.4687-.9076-1.9626.215-.498.8865-.8208 2.5912-.369-.0868-.777-.1922-1.5782.7802-1.9245.9724-.3439 3.1564-.0446 6.2033.2822 3.0469.3252 6.4839.3901 7.9973.279 1.5133-.1054 3.2221-.425 3.9982-.7113.4112-.1516.0673-.1597-.1095-.1305-1.2092.1962-3.7371.429-5.8578.4517-2.1183.0235-4.3446-.2368-6.398-.5361-2.051-.3041-4.5367-.5863-5.6194-.24s-1.382.9724-1.4476 1.7745c-1.017-.1517-1.8094-.142-2.3146.519-.3463.4517-.5175.884-.3463 1.6204-1.794.0843-3.047.2595-4.1272.8231-1.0803.5637-1.815 1.4672-2.1167 2.549-1.0381-1.1224-2.4647-3.0047-4.9504-2.9415-2.4857.0673-3.1353 1.386-3.4159 2.2262 1.1013 0 2.2684.1768 2.703.9513.4323.7802.5175 1.2343.4729 1.4955-.0406.2538-.3017.927-.4518 1.2514-.15.3187-.4557 1.1645 0 1.8571-.369.3901-1.1459.8628-1.3187 1.0578-.6901-.129-1.6414-.2484-1.9496-.129-.3941.154-.9902.821-1.3576 1.365-.369.538-.3463.821.0422.905.3884.088.8207-.042.8207.413 0 .448-.1922.537-.6691.863.884 0 1.815.154 2.2051.326.3885.171.5637.519.6034.667.0446.154.1306.302-.1711.456-.3058.154-.7153.649-.8013.992-.0843.349-.0843.911-.0405 1.278-.9116-.025-1.7299-.108-1.7956.413-.0632.514.3017.775.6269 1.058.3228.279.5385.521.7348.645-.498.218-.8751.58-1.0592 1.193-.0657.213-.2595.125-.4306.06-.1752-.06-.7153-.343-1.0381-.017-.3252.325-.1752 1.146-.1095 1.467-.7347.177-1.4898.541-1.7704.886-.6018-.237-1.3422-.969-1.3203-1.945.0227-.97.3463-2.026.4558-2.596.1054-.561.1305-1.057-.0235-1.53-.2369.431-.5175.994-.6034 1.473-.0884.473-.0235 1.513-.0657 1.855-.0446.347-.1938.691-.2384.862-.6918-.017-1.232 0-1.5345.545-.3673-.456-.6706-.869-.2368-1.821.4307-.946 1.6188-2.874 2.2684-3.761-.3252-.886-.5401-1.317-.1079-2.18-.2368-.715-.4111-1.059 0-2.23.4096-1.163.4307-1.7898.5612-2.334.129-.5385 1.0284-2.484 2.2051-4.1255.1079-.1541.0633-.2368-.0656-.4785-.1306-.2368-.1963-.6918.5612-1.2538-1.2092-.017-2.27.1768-2.9626.3479-.6902.1727-1.7493.279-3.3932 1.5953-.1728-.6902-.4404-1.9205.2822-3.0032.3885-.5847 1.5977-1.1418 2.2894-1.4241.6918-.2789 1.7729-.6034 2.3803-.5401.6058.0657 1.4266.446 1.8994 1.2749.0884.1541.219.5847.219.9091 0 .3252.1305.3252.1054 0-.0843-1.2538-.1054-1.9683.0657-2.8547.1752-.8864.4558-2.0746.9724-2.8742.5206-.7997 1.2262-1.5531 6.0533-4.4118 2.1183-1.2514 3.3721-1.8994 4.604-2.9164 1.2319-1.0154 2.7453-2.57 2.7453-3.7371 0-.7574-.6707-1.2781-1.0381-1.5798.1306-.0843.2806-.2384.3228-.365-.5174-.2149-1.0576-.3462-1.0381-1.0607.0211-.6691.9513-1.017 1.4281-.5175.129-.1751.129-.6496.0211-.8864-.1078-.24-.4111-.6917-.9285-1.038-.5207-.3463-.8013-.8013-.6708-1.0827.1306-.2807.4753-.3018.6059-.1939.1305.1095.1305-.0868.0656-.1922-.0656-.1095-.3252-.3041-.1751-1.3422" fill="#fff"/><path d="m86.8635 103.296c0 .39.2149.603.5612.732.3463.131 1.1686.823 1.0397 2.638-1.1265.046-3.5911-1.946-3.8466-3.419.7323-.123 1.6398-.082 2.2457.049z" fill="#e2231b"/><g fill="#fff"><path d="m65.2739 102.232c.9075-.994 1.9204-1.921 2.3527-2.3107.4306-.3844 1.0802-.9513 1.5571-1.3843-.9075-.2539-2.6795-.2709-3.3721.7209-.5328.7631-.8629 2.1391-.5385 2.9741"/><path d="m62.295 99.288c.6367 1.473.1752 2.567.9513 3.347-.4322.029-1.3819.401-1.6439.542-.2595.148-.8361.52-1.2108.492-.373-.031-.4882-.171-.6326-.313.923-.84 1.9035-2.336 2.536-4.068z"/><path d="m58.9821 97.0715c.8921 0 2.2935.1484 2.682 1.382.1403.4614.1443 1.2416-.1176 1.7265-.6634 1.242-1.0787 1.775-2.2181 2.915-.5207.52-1.1265 1.207-2.3357 1.265-.575.031-.9805-.083-1.3535-.23 1.3243-1.413 2.1605-2.417 2.6819-3.801.5175-1.3816.661-2.5057.661-3.2575z"/><path d="m52.456 103.408c.7193.148 1.3649.408 1.6553 1.1 1.0072-.61 1.5838-1.04 2.1296-1.704.5499-.661 1.4436-2.162 1.6147-2.677.1752-.5195.5791-1.702.5499-2.9728-.6366.0884-1.1824.4379-1.3268 1.0397-.146.6033-.0576.9148-.0308 1.1167.1443.06.2903.0657.4055.0941-.3463.2847-.6366.3187-1.0073.3187-.3771 0-.665-.1176-.8077-.206-1.0981.7496-1.5458 1.0886-1.7591 1.4706-.3187.575-.9667 1.584-1.4241 2.418"/><path d="m53.7243 100.594c-.4055-.088-1.2035-.266-1.6074-.088-.4014.171-.8612.798-1.0324 1.058-.1751.259-.2595.549.1444.609.4038.06.5482-.031.6634.23.1151.259.1922.456.1922.655.4996-.455.7866-1.034.9902-1.436.2003-.401.4193-.654.6496-1.028z"/><path d="m53.881 105.46c.7128.513 1.0551 1 1.3633 1.678.3649.803.5174 1.603.1922 2.512-.4769-.994-.9513-1.619-1.2976-1.88-.1712-.13-.5175-.331-.6918-.362-.2806-.051-.3844-.068-.4079-.377-.0365-.496.1054-1.318.8418-1.572"/><path d="m52.5184 109.999c-.3901.148-.8419.579-.9076 1.076 1.0576.65 1.7729 1.299 2.3552 1.992.0868-1.083-.1938-2.076-1.4476-3.068z"/><path d="m49.731 112.7c.4963 1.058 1.0129 1.921 1.901 2.59-.9075.111-2.1816-.237-2.5725-.627-.3901-.384-.7153-1.034-.8207-1.319.3438-.325.8418-.579 1.4914-.644"/><path d="m44.6298 112.806c-.1768-.296-.1752-.561 0-.82.1711-.261.4112-.415 1.403-.368.2368 1.1.5418 2.165 1.1476 2.938-.6496.108-1.8183-.519-2.5514-1.75"/><path d="m31.2062 96.6401c.0211.9286.2149 2.7006 1.8361 3.2626-.2174-.8442-.2806-1.4955-.2806-1.9918 0-.4964.0227-1.2287.0632-1.815-.5612-.0827-1.0364.0251-1.6187.5442z"/><path d="m32.6749 95.6644c-.4964 0-1.1014.1711-1.4688.4785-.0446-.6091.0406-1.5133 1.3633-1.6439-.0657.3844.0406.8629.1055 1.1646"/><path d="m33.5142 96.3327c-.017-.4323-.0381-.4728.3074-.6496.352-.1784 1.2384-.2904 1.7283.4363-.4307.669-.6456 1.2538-.7364 1.9034-.0844.6439-.2368 1.2538-.365 1.2538-.1306 0-.5596-.7558-.7096-1.536-.1541-.7802-.2149-1.2133-.2247-1.4071"/><path d="m36.5879 96.2499c-.0657-.094-.8653.0658-1.1224.8208-.2611.7575-.4079 1.7436-.4769 2.0283-.0843.3731-.0227.3901.2806.0479.1095-.1306.7097-.6091.9903-1.1055.2481-.4379.7193-1.2302.3284-1.7915z"/><path d="m36.9991 96.1437c.1963.6439.1501 1.2538-.3252 2.0088-.369.5864-.9115 1.0762-1.15 1.2725.4996.0884.8264.0462 1.6902-.644.8669-.6918 1.1037-1.0827 1.4938-1.8401-.4558-.5612-.6074-.8629-1.7088-.7981"/><path d="m38.5124 99.2936c.0657.438-.1306 1.0394-.3463 1.3424-.2149.302-.6731 1.065-1 1.365.5864 0 1.0649-.066 1.5823-.585.5207-.521.9789-1.088 1.107-1.7971-.4095-.2369-.8037-.3423-1.3438-.3253"/><path d="m38.2521 98.786c0-.4964.0657-1.1111.6269-1.3901.5612-.2822.9075-.2595 1.0827-.6074.1784-.3617-.0446-.9051.0632-1.1476.1079-.2368.4226-.2595.498-.8386.0446-.3495-.1752-.5442-.2806-.7404-.1306.7404-.3674 1.5376-1.1881 2.4898-.5864-.6034-1.1922-1.1882-2.3357-1.0827.0211-.4307.3463-.9513.6269-1.2936.2806-.3495.5288-.4898.5612-.8686.0211-.2538-.0446-.2368-.3017.0227-.1727.1712-.9805 1.0171-1.167 1.2766-.2149.3017-.369.7153-.4112.905-.5612-.3674-1.0154-.4979-1.4703-.4979-.4534 0-.9554.2019-1.2149.373-.2749-.1938-.4712-.7558-.2093-1.2108.3155-.5555 1.2725-1.2359 2.2895-1.2538.3901-.5612.9724-1.0397 1.4282-1.2359.5247-.2231 1.0689-.3561 1.7055-.0657.5637.2611 1.0365.7404 1.017.9764.519.017 1.382.1306 1.6228.3901.2368.2595.3463.4728.365.927.3673.0422.6269.1078.9286.1484 0 .3901.0446.9115.1751 1.2781.129.365.129.6902.129.927 0 .2425-.1079.5441-.2384.7801-.1266.2369-.3017.7381-.777.6691-.1516-.0194-.1306 0-.1078-.4979.0154-.3828.0632-.6018-.1728-.6018-.2368 0-.3674.0406-.5417.3423-.1712.3074-.365.7801-.4307 1.1459-.0657.3674-.0657.8629-.3017 1.1054-.0657.0657-.1306.0195-.3901-.1111s-.7769-.2765-1.5782-.313"/><path d="m45.6435 102.841c.0884-.692.2806-1.359.4307-1.946.1541-.584.4558-1.7489.7802-2.7002-.6707.1711-1.0608.3016-1.5134.8628-.4557.5613-.7996 1.1224-.7996 1.9264 0 .799.2595 1.384 1.1013 1.857"/><path d="m44.089 100.228c.2806-.7575.7323-1.4306 1.1224-1.755.4266-.348 1.2538-.863 1.8588-.9287.4979-.8864 1.0381-1.7493 1.4282-2.2683-.1095-.3439-.1541-.6691-.0446-1.017-1.1882-.0657-1.9456.0462-3.0064.4598-1.0576.4079-1.7704 1.2076-2.1394 1.8337-.3674.6244-.4964 1.2765-.3861 1.8783.1055.609.4518 1.4241 1.1671 1.7972z"/><path d="m43.7613 91.5567c.957-.6155 2.9528-1.5726 4.3486-1.5361.8653.0227 1.4492.3285 1.8612.717.0446-.6707.2976-1.536.2579-1.7534-.0446-.2149-.2806-.9051-.9513-1.3609-.6707-.4517-1.9034-.4728-2.9415-.1265-1.0381.3422-1.5344.7324-1.7939 1.1435-.2579.4096-.5823 1.146-.6691 1.4687-.0884.3253-.1735 1.0633-.1119 1.4477z"/><path d="m45.8179 87.1919c.9286-.2595 2.2262-.4964 3.0915-.1939.8629.3042 1.1882.6269 1.5766 1.223.365-.8012.7786-1.6106.9302-1.8701.1501-.2612.3252-.4112.1095-.9513-.2149-.5418-.4996-.9513-1.017-1.2092-.5206-.2595-1.5133-.1752-2.0745.0405-.5653.2174-1.4071.8013-1.7088 1.1476s-.9513 1.1013-.9075 1.815"/><path d="m48.3685 83.7339c.7113-.1712 2.2262-.2596 2.9415.3252.7113.5823.8418.798.8824 1.3632.7153-.5863 1.6877-1.4071 2.7031-1.9472-.1079-.3674-.5385-.8629-1.3609-1.3187-.8207-.4517-1.8783-.3463-2.4857-.2595-.6058.0844-1.751.4347-2.0535.7802-.3041.3438-.5863.6667-.6269 1.0568z"/><path d="m51.5015 81.0526c1.3422.0657 3.3064.4112 4.3023 1.8799.7997-.4079 1.9878-1.0786 2.4225-1.3592.0405-.5612-.1095-.9959-.4112-1.2781-.3041-.279-.8231-.4307-1.665-.515-.8442-.09-1.4265-.2612-2.3989-.1541-.9724.1095-1.2976.39-1.5993.6496-.3041.2595-.519.4963-.6496.7769"/><path d="m56.4518 79.4809c.8207.15 1.8588.1443 2.7241 1.4419.7786-.4517 2.1816-1.2992 2.7874-1.8377-.1054-.5847-.5612-1.1435-1.3381-1.4898-1.0438-.4631-1.3422-.4964-1.7745-.5612-.129.2149-.2149.5174-.1938.6918-.7364 0-1.2749-.0211-1.6439.3252-.3674.3463-.5402.648-.5612.8191-.0211.1727 0 .4395 0 .6107z"/><path d="m59.1921 76.6262c1.2092.2806 1.6666.4404 2.2376.7745.3649.2149.8596.7615 1.0308 1.1727.3463-.1054.7153-.4363 1.0827-.957.3674-.5174.8418-1.1037.8418-1.6187 0-.5207-.1095-.867-.9513-1.3422-.4112.2595-.8208.6244-1.8361-.0657-.4534.1938-.8208.6058-.6496 1.4703-.9075.0211-1.5839.2004-1.755.5653"/><path d="m84.2691 82.2383c-1.7055-1.9934-3.8336-4.1661-8.0394-4.1661-2.1394 0-6.3769 1.4533-6.3769 4.5789 0 .6521.0884 1.3633.3252 1.7299.1752.0227.5417.1289.7558.1095-.2595-.5823-.5612-1.1687-.0194-2.249-.1752-.0421-.3901-.021-.498 0 .1728-.3462.4323-.4768.6918-.6034.2612-.1305.6691-.3252.9724-.3252-.6269.5612-.8864 1.1476-1.017 1.5345-.1306.3901-.2149 1.1881.3057 1.5976.2555.0252.5807.0463.8403.0252-.2133-.4112-.5848-.8013-.4323-1.4282.1541-.6269.3536-1.0397 1.3819-1.5571.4769-.2368.7364-.2806.9116-.3017.1711-.0211.15.0868 0 .1306-.1517.0446-.6269.3674-.9513.6269-.3252.2595-.6496.7364-.7575 1.2108-.1095.4728-.0657.884.3252 1.3398.4323 0 .7324-.0001 1.0592-.0463-.1752-.7323-.2174-1.0129-.1517-1.2075.1055-.3269.3017-.498.6058-.7364.3017-.2368 1.2749-.9286 1.4899-.9286.2149 0 .7153.3057.8864.5401l-.0446.0633c-.2368-.1939-.5385-.3017-.6675-.2807-.1305.0236-.3901.1728-.9075.5402-.5206.3674-.9091.6496-.9091 1.017 0 .3649.0632.7558.1289.9918.4558-.0194.8654-.0632 1.1881-.1054.0447-.3901.1541-.7559.4558-.8864.15-.0657.1501.0113.0657.1265-.1305.1711-.1751.4785-.1078.7364.6885 0 1.403-.0211 1.9877-.1501-.2611-.3884-.648-.7128-1.1686-.7574.0446-.1306.1751-.2579.5612-.2149.3901.0446.8012.1094 1.2108.8207.8013-.0657 2.0972-.3463 3.8044-.9943-1.0575-1.2554-2.0535-2.1629-3.0915-2.7452-1.0381-.5847-3.0259-1.2538-4.9925-1.146.2173-.1962.4979-.2806.8012-.3674.3017-.0843 1.3187-.2384 2.0105-.0446.6901.1939 2.2246.867 2.8507 1.1881.6269.3252 1.6844 1.1922 2.184 1.6229.4963.4306.9286.8669 1.167 1.1475.498-.1516.7956-.2635 1.1646-.4379"/><path d="m90.9777 65.8561c-1.5572.777-2.8167 1.2262-4.9772 1.3422-1.6228.0844-3.2415-.8864-4.1085-1.3187-.8629-.4306-2.1629-1.1499-3.201-1.2343.5207.4574 1.1922 1.0843 1.3422 1.6455s.2806 1.167-.2863 1.815c.9327.3252 2.124.6091 3.0778.6732.948.0657 2.334-.0227 2.8068-.0673.4745-.0446.5118-.0098.0884.1265-.3463.1095-1.6877.4347-3.2432.2636-1.5555-.1752-2.9601-.5402-4.4077-1.1014-1.4477-.5636-2.4241-.9326-2.6609-1.0608-.2368-.1305-.4347-.1094-1.146.1387-.3438.1209-1.686.7072-2.1816 1.4395-.4995.7348-.7801 1.8378-.2595 2.8548.5191 1.0129 1.2514 1.4241 1.7072 1.6438.4533.2149 1.5555.4712 2.9836.4307-1.1224-.4112-2.0745-.7575-2.6162-1.4071-.5402-.6455-.9724-1.2935-.8654-2.0956.1079-.7997.5191-1.4266 2.3779-1.2976 1.8588.1305 4.1199.884 4.2366 2.2051.0633.7364-.8629 1.2132-1.4054 1.5344-.4672.2806-.6399.3041-.2149.4996.3252.1484.8207.3227 1.9683.2368 1.1418-.0868 2.6568-.4964 4.235-1.2319 1.5782-.7324 3.1564-1.9189 4.3891-3.0624 1.2287-1.1459 1.8548-1.9091 2.3609-2.9698"/><path d="m72.6125 67.3281c-1.094.8361-1.6131 1.7282-1.669 2.8531-.06 1.1248 1.0729 2.3551 1.6779 2.845.6058.4898 1.4631.8458 3.3932.871 1.9302.0308 4.9853-.2287 6.6843 1.6747 1.6991 1.9034 1.8742 3.4581.6634 5.0712-1.0381-1.0381-2.5644-2.0454-3.8044-2.5068-.2863-.5767-.7169-1.0673-2.1589-1.2668-1.4436-.206-3.9795-.4923-5.5634-1.5879-1.5839-1.0941-2.7956-2.2457-2.7956-4.437 0-1.7283 1.6723-3.5449 3.5717-3.5165"/><path d="m60.9114 112.635c-.8629-.148-2.3649-.117-2.9666.03-.6075.142-1.6147.976-1.7899 1.296-.1711.318-.4598 1.293.1752 1.957.1711-.545.4614-1.236.8077-1.527.3463-.288 1.5247-.721 2.6796-.661.4014.573.7785 1.034 1.1224 1.183.2611-.752.4014-1.325-.0292-2.277"/><path d="m61.3437 115.024c.2303-.863.4614-1.786-.0844-2.767.6058-.313 1.4979-.259 2.1881.089.6918.342 1.2133.661 1.8742.401.6634-.259 1.6991-.78 2.1054-.803.4014-.03.6325.141 1.4379-.12.811-.259 1.4435-.69 1.849-.951.4015-.259 1.2384-.602 1.8702-.633.6342-.029 1.0957-.14 1.2668-.23.1752-.088.2328-.289-.1403-.2-.3771.083-.721.2-1.2416.2-.5175 0-1.3536.031-1.6707 0-.3155-.029-.8077-.37-1.7282-.348-.9229.029-1.8742.26-2.4225.408-.5482.142-1.8458.604-2.1029.373-.2595-.23-.3463-.721-.5207-1.065-.1711-.348-.661-1.069-.8921-1.442-.2303-.373-.0867-.632.0308-1.094.1136-.461.4015-1.099.9205-1.872.5174-.78 1.3244-1.815 1.6439-2.305.3171-.492 1.5531-1.763 2.0146-2.165.4614-.401 1.5279-1.324 1.9609-1.7319.6343.4079 1.0957 1.0113 1.1825 2.0449.0843 1.04-.1152 1.673-.3171 2.081.8077-.289 2.3048-.639 2.9974-.608.6918.029 1.4996.289 1.901.608-.4322.976-.798 1.495-2.2765 2.418-.4614.29-1.1824.579-1.6439.633-.4614.06-1.3535.148-1.9009.259-.5499.119-.9805.29-1.1516.35-.1752.057-.3464.259.0267.171.3747-.083.7802-.202 1.386-.291.6018-.082 1.4979-.111 2.1297-.111.6366 0 1.3284 0 1.9342.319.6034.313 1.0941.863 1.8994.892.8078.029 1.8742-.117 2.0745.142.206.26.1752.69-.0559 1.094.2303.431.2611.81.1711 1.299-.0844.49-.2595.923-.6326 1.296.6034-.113 1.18-.261 1.8166-1.011.631-.746.777-1.436.8921-2.045.1152-.604.2304-1.006.4039-1.183.1712-.171.4899-.313.6634-.029.1752.289.721 1.559.721 2.334 0 .78-.146 1.413-1.0381 2.194-.8921.78-1.7282.98-2.9974 1.242-1.2668.253-2.3049.43-2.9967 1.034-.6901.607-1.18 1.299-1.6414 1.743-.4055.385-1.1533.448-1.4517.696-.3171.267-.5385.934-.8289 1.19-.2863.259-1.0364.237-1.2668.49-.2303.259.0292.609-.4014 1.299-.3074.492-.6634.752-.8386.834-.1711.089-.3154.06-.4306-.171-.1152-.23-.6342-.692-1.2976-.663.3747.55.6326.951.6918 1.555-.4307.521-.6367.981-.6059 1.413.0292.431.4347.951.661 1.294-.7169 0-.9764-.142-1.3243-.661-.3439-.521-.5191-1.006-.5459-1.525-.0292-.521.1152-.951.4323-1.354-.2611-.871-.4923-1.384-.4055-1.703.0884-.318.6918-.863.9205-1.039.2303-.173.6366-.404.7802-.545.1419-.148.3463-.549.6609-.84.3171-.284.5791-.342 1.1249-.572.5499-.231 1.5279-.579 1.8183-.692.2846-.118.832-.692 1.0364-.892.2019-.202.665-.539.8921-.638.5482-.225.2303-.314-.1135-.225-.3479.083-.7786.373-1.1249.632-.3463.26-.6366.604-1.4127.981-.7786.373-1.2109.515-1.6131.603-.4055.089-.8362.114-1.1265.573-.2863.461-.5174.869-1.094 1.271-.575.401-1.3536.78-1.2668 1.903-.4615 0-.8078.083-1.1533.173-.4038-.663-.6058-1.125-.7801-1.213-.1712-.083-.4307-.052-.5175-.03-.0843.03-.06.118.0868.26.1444.148.2595.49.2003.692-.0559.2-.1265.276-.3154.461-.5175.519-1.2384 1.561-1.4128 2.194-.3706-.379-.661-1.153-.4615-1.993.2036-.833.867-1.525 1.1825-1.927-.0292-.691.0308-.982.3171-1.301.2887-.313.8961-.832 1.2108-.921.3171-.082 1.1824-.259 1.5839-.344.4055-.088.6342.031 1.2132-.69.575-.721 1.1517-.893 1.901-.863.7478.023 1.4395-.03 2.1897-.378.7494-.343 1.24-.756 1.5263-1.017.2149-.194.0292-.249-.2019-.106-.2303.142-1.0073.519-1.6131.75-.6058.23-1.0073.29-1.7858.261-.7802-.031-.9805-.179-1.5571.2-.5767.373-1.0381.981-1.2977 1.182-.2595.202-.8628.431-1.4127.515-.5458.089-1.4979.378-2.6795.26"/></g><path d="m22.8301 11.9149c-.5442-.5977-1.2384-.9749-2.1881-.9749-.9091 0-1.7817.5669-1.7817 1.3382 0 1.9975 5.7864 1.1646 5.7864 5.1466 0 2.3762-1.8166 4.0582-4.7987 4.0582-2.0129 0-3.4856-.944-4.4905-2.3129l1.8402-1.4631c.386.9132 1.4128 1.7299 2.6333 1.7299 1.1573 0 1.8767-.8013 1.8767-1.7145 0-1.2262-1.3958-1.5725-2.536-1.9358-1.8783-.6285-3.2505-1.4014-3.2505-3.2432 0-1.965 1.7996-3.55463 4.2545-3.55463 1.2976 0 3.0988.52068 3.9909 1.32033l-1.3357 1.605z" fill="#e2231b"/><path d="m30.3692 21.1684h-2.845v-9.8504h-2.9415v-2.01295h8.728v2.01295h-2.9415z" fill="#e2231b"/><path d="m34.8653 20.0663c0 .7712-.7745 1.4152-1.7225 1.4152-.9497 0-1.7242-.644-1.7242-1.4152 0-.7713.7745-1.3844 1.7242-1.3844.948 0 1.7225.6131 1.7225 1.3844z" fill="#e2231b"/><path d="m47.9493 14.8588v.2977c0 3.3526-2.111 6.325-6.638 6.325-4.2586 0-6.9479-2.9261-6.9479-6.1977 0-3.3835 2.7663-6.29418 7.1222-6.29418 2.476 0 4.6462 1.02268 5.7654 2.83198l-2.5149 1.1014c-.5791-1.0705-1.8183-1.888-3.3275-1.888-2.7493 0-4.1061 2.2797-4.1061 4.2488 0 1.9667 1.3746 4.1523 4.1239 4.1523 1.7818 0 3.2716-1.2595 3.3316-2.6893h-3.0988v-1.888z" fill="#e2231b"/><path d="m51.4098 11.318v2.6122h4.527v2.0129h-4.527v3.2107h4.7022v2.0146h-7.5496v-11.86335h7.5496v2.01295z" fill="#e2231b"/><path d="m59.5498 15.1272c0 1.7915 1.8572 4.0737 4.2756 4.0737s4.2772-2.2822 4.2772-4.0737c0-1.9204-1.7801-3.8563-4.2772-3.8563-2.4954 0-4.2756 1.9359-4.2756 3.8563zm-2.9431.0925c0-3.3202 2.9601-6.23093 7.2187-6.23093 4.2602 0 7.2203 2.91073 7.2203 6.23093 0 3.4005-2.9601 6.2609-7.2203 6.2609-4.2586 0-7.2187-2.8604-7.2187-6.2609z" fill="#e2231b"/><path d="m74.5549 14.7639h.369c1.5669 0 2.6706-.3787 2.6706-1.8247 0-1.4647-1.1418-1.7453-2.6527-1.7453h-.3861zm7.0281 6.4053h-3.4467l-3.5433-4.7833h-.0381v4.7833h-2.8434v-11.86494h3.8507c2.8855 0 4.8773 1.03804 4.8773 3.57164 0 1.5093-1.0243 3.0202-2.9796 3.2894l4.124 5.0039z" fill="#e2231b"/><path d="m94.3765 14.8588v.2977c0 3.3526-2.107 6.325-6.638 6.325-4.2586 0-6.9479-2.9261-6.9479-6.1977 0-3.3835 2.768-6.29418 7.1222-6.29418 2.476 0 4.6463 1.02268 5.7695 2.83198l-2.5182 1.1014c-.579-1.0705-1.8166-1.888-3.3275-1.888-2.7493 0-4.1028 2.2797-4.1028 4.2488 0 1.9667 1.3746 4.1523 4.1239 4.1523 1.7785 0 3.2683-1.2595 3.3275-2.6893h-3.0972v-1.888z" fill="#e2231b"/><path d="m97.8112 11.318v2.6122h4.5268v2.0129h-4.5268v3.2107h4.7018v2.0146h-7.5468v-11.86335h7.5468v2.01295z" fill="#e2231b"/><path d="m75.6189 149.491.3155-.149c1.3422-.65 2.1321-1.424 1.5361-2.666-.6034-1.254-1.7015-1.023-2.9935-.402l-.3284.16zm8.6583 2.589-2.9488 1.418-5.0063-2.631-.0325.014 1.9708 4.094-2.4339 1.177-4.8984-10.16 3.3008-1.59c2.4687-1.188 4.6064-1.125 5.6478 1.046.6244 1.294.3706 3.009-1.1938 4.049z" fill="#e2231b"/><path d="m84.5407 144.744.3001-.177c1.2725-.775 1.9821-1.626 1.2684-2.803-.7226-1.188-1.7899-.857-3.0161-.111l-.313.188zm8.8699 1.738-2.8028 1.703-5.2366-2.14-.0292.017 2.3592 3.889-2.313 1.401-5.8538-9.641 3.1297-1.897c2.3438-1.424 4.4734-1.567 5.7248.496.7478 1.223.6594 2.954-.798 4.137l5.8189 2.034z" fill="#e2231b"/><path d="m28.4576 133.914 2.2067 1.621-5.1214 6.951 2.9796 2.191-1.5612 2.123-5.1847-3.813 6.6802-9.073z" fill="#e2231b"/><path d="m34.7494 138.425 2.2587 1.548-4.8985 7.11 3.051 2.1-1.4939 2.169-5.3039-3.647z" fill="#e2231b"/><path d="m43.0313 151.122.5556-3.841c.0324-.178.1362-.686.3074-1.532-.5329.675-.8727 1.077-.9846 1.211l-2.5684 2.908zm-.0713-7.82 3.3818 1.572-.8231 11.823-3.1929-1.267.352-2.055-3.841-1.791-1.4265 1.69-2.6276-1.348 8.1781-8.624z" fill="#e2231b"/><path d="m54.9125 152.251c-.3073.81-.1208.438-.5652 1.455l-2.0129 4.847-3.214-.835-1.1768-12.253 3.3722 1.39.2765 5.407c.0632.581.0965 1.154.1152 1.715.1808-.567.3901-1.111.5977-1.626l1.7436-4.735 2.974.533.3957 4.848c.1265 1.034.1265 1.608.133 1.69.2271-.686.6423-1.809.9902-2.896l1.3244-3.759 3.4946-.318-4.4329 11.763-3.2067-.379-.425-3.393" fill="#e2231b"/><path d="m69.6127 153.516-1.8434-3.416c-.0811-.16-.3017-.627-.665-1.408-.0268.858-.06 1.379-.0673 1.562l-.3285 3.866 2.905-.604zm-4.7192-6.237 3.6527-.749 5.973 10.273-2.8604.696-.9902-1.961-4.1507.85-.1443 2.217-3.3389.597z" fill="#e2231b"/><path d="m96.9304 138.272-3.2124-2.176c-.146-.105-.5596-.419-1.2417-.946.3747.775.5864 1.254.6594 1.419l1.4954 3.577zm-7.0671-3.347 2.8936-2.357 10.0431 6.348-2.3 1.874-1.6987-1.219-3.2837 2.678.8345 1.922-2.2992 1.873-4.1888-11.12z" fill="#e2231b"/><path d="m24.6687 130.9 2.1338 1.638-6.8652 8.937-2.1337-1.644z" fill="#e2231b"/></g></svg>