<svg width="278" height="41" viewBox="0 0 278 41" fill="none" xmlns="http://www.w3.org/2000/svg">
<g clip-path="url(#clip0_2896_933)">
<path d="M19.2307 1.3754H48.9187V12.867H47.632C46.4478 4.74782 42.7957 3.31945 35.8495 3.31945C33.0199 3.31945 32.0931 3.54884 32.0931 6.00575V19.2683C37.032 19.3268 39.6565 17.8402 40.4275 10.7516H41.7657V30.0749H40.4275C39.8105 22.9265 37.1863 21.2128 32.0931 21.2128V35.0469C32.0931 37.563 33.07 38.2483 36.4151 38.2483C41.4573 38.2483 46.7036 36.7638 49.9463 28.131H51.3872L49.3291 40.022H19.2302V38.5923C22.1632 38.2482 23.7577 38.0777 23.7577 34.534V6.86393C23.7577 3.09148 21.5954 2.97731 19.2302 2.80437V1.37595" fill="#134784"/>
<path d="M79.0148 11.1414C75.3815 11.497 74.6226 12.6933 68.3145 22.5425L75.581 35.0978C77.6977 38.7338 78.3357 38.8226 79.4529 38.9127V40.0205H65.8787V38.9127C67.9553 38.7801 69.073 38.6901 69.073 37.4931C69.073 37.0474 68.633 35.8971 68.2332 35.1854L64.2011 27.9992L62.685 30.2616C59.3698 35.1856 58.9326 36.2059 58.9326 37.0475C58.9326 38.6011 60.7677 38.7802 62.1656 38.9127V40.0205H52.1836V38.9127C53.5404 38.6902 54.8991 38.4687 56.3362 36.4282L63.3239 26.6244L55.4175 13.7141C54.5801 12.3394 53.9005 11.2298 52.2238 11.1413V10.032H66.0389V11.1413C63.6826 11.3187 62.883 11.3187 62.883 12.6049C62.883 13.1812 63.0054 13.4472 63.4832 14.2468L67.3561 20.9003C71.9066 13.8913 71.9066 13.8913 71.9066 12.6933C71.9066 11.3188 70.7899 11.2755 69.0328 11.1414V10.0321H79.0148V11.1414Z" fill="#134784"/>
<path d="M95.7453 29.5514L91.7118 18.7717L87.9594 29.5514H95.7453ZM107.923 40.0205H94.9868V38.9127C97.4622 38.6902 98.1805 38.646 98.1805 37.1817C98.1805 35.9844 96.9017 32.7021 96.3436 31.2821H87.3597C86.2429 34.4759 85.6031 36.2939 85.6031 37.0049C85.6031 38.6899 87.5199 38.8225 88.8781 38.9124V40.0202H80.7732V38.9124C82.9282 38.557 83.4878 37.0472 84.6858 33.7224L93.5496 9.41051H94.6678L103.571 32.7437C105.367 37.4928 106.006 38.9992 107.923 38.9124V40.0202" fill="#134784"/>
<path d="M146.052 40.0214H132.798V38.9118C135.193 38.6458 136.352 38.5129 136.352 35.5848V13.2253H136.273L126.289 40.0214H125.212L115.231 13.8924H115.151V34.5212C115.151 37.6251 115.87 38.6906 119.182 38.9118V40.0214H109.84V38.9118C112.955 38.602 113.474 37.9366 113.474 35.3637V14.2903C113.474 11.9831 112.755 11.3629 109.919 11.1418V10.0324H120.02L128.007 30.9714L135.992 10.0324H146.052V11.1418C143.816 11.3178 142.54 11.4078 142.54 15.223V34.8292C142.54 38.3792 143.418 38.513 146.052 38.9119V40.0215" fill="#134784"/>
<path d="M161.781 40.0215H147.81V38.9119C149.965 38.6906 151.521 38.513 151.521 35.7619V14.2906C151.521 11.3632 149.645 11.2747 147.81 11.1421V10.0326H161.781V11.1421C159.906 11.2292 157.989 11.2747 157.989 14.2906V35.7619C157.989 38.6021 159.587 38.7346 161.781 38.9119V40.0215Z" fill="#134784"/>
<path d="M163.217 38.9126C165.612 38.601 166.732 38.2899 166.732 35.3625V14.3348C164.494 11.2737 163.857 11.1412 163.337 11.1412V10.032H171.761L185.615 28.9748H185.695V15.5331C185.695 12.8701 185.217 11.4079 181.984 11.1412V10.032H190.567V11.1412C187.691 11.5414 187.452 12.5606 187.452 14.6897V40.8201H186.336L168.567 16.7754H168.487V34.5198C168.487 37.7126 169.328 38.5565 172.28 38.9124V40.0214H163.217V38.9124" fill="#134784"/>
<path d="M192.085 10.0324H215.122V18.9489H214.123C213.205 12.6495 210.37 11.5415 204.98 11.5415C202.786 11.5415 202.065 11.7175 202.065 13.6264V23.9159C205.9 23.962 207.935 22.8086 208.533 17.3067H209.573V32.3019H208.533C208.056 26.7578 206.019 25.426 202.065 25.426V36.1619C202.065 38.1133 202.823 38.6461 205.421 38.6461C209.333 38.6461 213.406 37.492 215.92 30.7947H217.038L215.442 40.0205H192.085V38.9127C194.36 38.646 195.597 38.5131 195.597 35.7633V14.292C195.597 11.3633 193.921 11.2748 192.085 11.1422V10.0328" fill="#134784"/>
<path d="M228.043 24.7163C233.273 24.6721 235.35 23.6969 235.35 17.9285C235.35 13.4479 233.712 11.5401 230.519 11.5401C228.324 11.5401 228.243 12.0279 228.043 13.403V24.7163ZM245.57 40.0213H237.386L229.121 26.1359H228.043V34.8308C228.043 38.3803 228.922 38.5129 231.556 38.913V40.0214H218.062V38.913C220.777 38.5565 221.574 38.4231 221.574 34.8308V15.2232C221.574 11.408 220.337 11.3193 218.062 11.1405V10.0326H230.917C233.712 10.0326 242.177 10.3866 242.177 17.8402C242.177 23.2979 238.064 24.6723 235.91 25.4257L243.934 38.0692C244.493 38.867 245.092 38.9131 245.57 38.9131V40.0215" fill="#134784"/>
<path d="M5.9839 9.25293H2.11205V8.95271C2.90408 8.87894 3.16339 8.85512 3.16339 7.84288V1.49413C2.40488 1.5421 1.28933 1.60322 1.07239 3.53015H0.758789L0.790709 1.10985H7.29596L7.31757 3.53015H7.00308C6.78615 1.60322 5.66912 1.5421 4.91966 1.49413V7.84288C4.91966 8.86684 5.18097 8.89136 5.98383 8.95271V9.25293" fill="#134784"/>
<path d="M13.4107 9.25308H10.8624V8.96454C11.2207 8.92793 11.372 8.72383 11.372 8.27602V5.36179C11.372 5.02423 11.3609 4.36184 10.7755 4.36184C10.3414 4.36184 9.87506 4.95281 9.87506 5.05941V8.27602C9.87506 8.55413 9.90696 8.90342 10.4072 8.96454V9.25308H7.79468V8.96454C8.1851 8.87909 8.36709 8.83182 8.36709 8.24122V2.09744C8.36709 1.53103 8.21742 1.49442 7.79468 1.39867V1.11014H9.87506V4.4954C10.3968 3.81879 10.8624 3.55532 11.4266 3.55532C12.0232 3.55532 12.8796 3.92894 12.8796 5.25335V8.24131C12.8796 8.44619 12.8796 8.96464 13.4107 8.96464V9.25317" fill="#134784"/>
<path d="M16.652 5.85613C16.6401 5.48214 16.6401 4.8558 16.5544 4.49442C16.4888 4.22915 16.3478 3.92819 15.9676 3.92819C15.5685 3.92819 15.1986 4.19365 15.1986 5.85613H16.652ZM18.0395 7.91629C17.3767 9.036 16.76 9.42065 15.8922 9.42065C14.798 9.42065 13.6914 8.52928 13.6914 6.46931C13.6914 4.68647 14.6789 3.55397 15.9239 3.55397C17.8126 3.55397 17.9536 5.6511 17.9855 6.30177H15.2526C15.2847 7.32536 15.5238 8.55416 16.5544 8.55416C17.1937 8.55416 17.5738 8.02432 17.7795 7.74644L18.0395 7.91629Z" fill="#134784"/>
<path d="M249.026 11.1144C249.026 11.1144 248.848 11.1862 248.892 11.3343C248.952 11.5248 248.892 11.5543 248.892 11.5543C248.892 11.5543 248.82 11.6713 248.863 11.7449C248.909 11.8191 248.879 11.9357 248.879 11.9357C248.879 11.9357 248.863 12.0527 248.982 12.0376C249.098 12.0233 249.069 12.2284 249.069 12.2284L249.055 12.4482C249.055 12.4482 248.995 12.7122 249.055 12.756C249.113 12.8007 249.113 12.9627 249.113 12.9627C249.113 12.9627 249.129 13.299 248.967 13.5481C248.936 13.6444 248.835 13.6002 248.835 13.6002C248.835 13.6002 248.778 13.5911 248.718 13.6946C248.659 13.7967 248.592 13.7389 248.592 13.7389L248.475 13.8781C248.475 13.8781 248.476 13.9906 248.523 14.0355C248.567 14.0797 248.588 14.2014 248.588 14.2014L248.578 14.4535C248.578 14.4535 248.523 14.5525 248.468 14.563C248.414 14.5742 248.512 14.7172 248.535 14.7388C248.557 14.7614 248.645 14.9138 248.689 14.9475C248.731 14.9812 248.82 15.0575 248.82 15.1249C248.82 15.1902 248.863 15.2344 248.909 15.2663C248.952 15.3 248.93 15.41 248.93 15.41L248.919 15.5748C248.919 15.5748 248.863 15.8165 248.909 15.9045C248.952 15.9931 248.942 16.1139 248.942 16.1139C248.942 16.1139 249.075 16.4982 249.15 16.6084C249.171 16.6524 249.083 16.6524 249.083 16.6524C249.083 16.6524 249.031 16.8841 249.139 16.9831C249.249 17.0806 249.273 17.2583 249.273 17.2583C249.273 17.2583 249.262 17.434 249.383 17.5205C249.5 17.6107 249.446 17.7082 249.446 17.7082C249.446 17.7082 249.535 17.8611 249.68 17.9283C249.821 17.9939 249.832 18.5442 249.69 18.5764C249.547 18.6106 249.61 18.7421 249.69 18.7641C249.767 18.7857 249.942 18.9718 249.942 19.0173C249.942 19.0608 250.645 20.2811 250.645 20.2811C250.645 20.2811 250.81 20.6318 250.756 20.7106C250.7 20.7866 250.778 20.9408 250.778 20.9408L250.897 21.05C250.897 21.05 250.931 21.1388 250.843 21.183C250.756 21.2258 250.911 21.5128 250.911 21.5128C250.911 21.5128 250.986 21.6774 251.117 21.5681C251.25 21.458 251.26 21.6121 251.26 21.6121L251.536 22.039C251.536 22.039 251.6 22.1173 251.569 22.206C251.536 22.2922 251.757 22.4468 251.757 22.4468C251.757 22.4468 251.985 22.677 252.01 22.7872C252.029 22.8965 252.107 22.9958 252.151 23.0316C252.199 23.0635 252.416 23.2281 252.438 23.2939C252.46 23.3594 252.536 23.4584 252.692 23.5255C252.846 23.5913 253.463 24.855 253.438 25.0749C253.417 25.2942 253.481 25.3617 253.481 25.3617C253.481 25.3617 253.593 26.1977 253.307 26.3826C253.186 26.5048 253.316 26.5485 253.316 26.5485C253.316 26.5485 253.47 26.5596 253.492 26.6141C253.514 26.6693 253.735 26.5934 253.648 26.4726C253.56 26.3519 253.735 26.0756 253.856 26.0327L253.888 25.9108L253.977 25.9981C253.977 25.9981 254.296 26.0756 254.195 26.2729C254.098 26.4726 254.262 26.3398 254.262 26.3398C254.262 26.3398 254.296 26.4816 254.272 26.5382C254.253 26.5934 254.241 26.7027 254.373 26.8235C254.505 26.9441 254.681 27.1657 254.681 27.1657C254.681 27.1657 254.767 27.2518 254.746 27.3288C254.724 27.4059 254.878 27.4509 254.878 27.4509C254.878 27.4509 255.031 27.5502 255.054 27.681C255.077 27.8124 255.253 27.7349 255.229 27.5607C255.209 27.3852 255.397 27.648 255.397 27.648C255.397 27.648 255.364 27.8458 255.506 27.8458C255.648 27.8458 255.704 27.8458 255.68 27.9556C255.66 28.0657 255.472 28.53 255.472 28.53C255.472 28.53 255.45 28.682 255.265 28.5172C255.077 28.3511 255.088 28.6699 255.122 28.8131C255.153 28.9568 255.197 29.3978 255.197 29.3978C255.197 29.3978 255.197 29.7027 255.077 29.4174C254.955 29.1318 254.976 28.3511 254.976 28.3511L254.648 27.9895C254.648 27.9895 254.561 28.0657 254.439 27.9771C254.317 27.8898 254.186 27.7026 254.186 27.7026L254.086 27.7252L253.888 27.5268C253.888 27.5268 253.856 27.3072 253.888 27.2415C253.922 27.1742 253.791 27.2736 253.791 27.2736L253.757 27.1657C253.757 27.1657 253.624 27.1542 253.571 27.2081C253.514 27.2648 253.428 27.2081 253.438 27.1542C253.449 27.0976 253.449 27.0435 253.449 27.0435L253.26 26.7683C253.26 26.7683 253.239 26.5485 252.988 26.3184C252.8 26.2422 252.891 26.4055 252.891 26.4055C252.891 26.4055 253.031 26.5382 253.01 26.6268C252.988 26.7117 253.143 26.9667 253.143 26.9667L253.163 27.2967C253.163 27.2967 252.997 27.5055 253.163 27.6916C253.331 27.8793 253.481 28.6393 253.481 28.6393L253.537 29.1538L253.504 29.506L253.746 29.9226L253.977 29.9352C253.977 29.9352 254.02 30.0125 253.922 30.0574C253.822 30.0998 253.902 30.2766 253.902 30.2766L253.735 30.3868C253.735 30.3868 253.504 30.7159 253.856 30.4843C253.945 30.4082 254.151 30.5395 254.151 30.5395L254.131 30.7378C254.131 30.7378 254.352 30.7914 254.373 30.9808C254.395 31.166 254.46 31.4414 254.46 31.4414C254.46 31.4414 254.681 31.5739 254.548 31.661C254.418 31.7495 254.538 31.9465 254.626 31.9903C254.714 32.0363 254.758 32.2229 254.758 32.2229L254.89 32.6283C254.89 32.6283 254.966 32.8592 254.945 32.9816C254.924 33.1028 255.054 33.123 255.088 33.2451C255.122 33.3659 255.339 33.3336 255.397 33.6849C255.45 34.0375 255.296 34.1013 255.516 34.0582C255.736 34.014 256.033 33.8391 256.165 34.1013C256.295 34.3666 256.483 34.4876 256.427 34.5866C256.374 34.6842 256.594 34.6842 256.67 34.7069C256.746 34.7301 256.813 34.895 256.727 34.9476C256.638 35.0028 256.67 35.2226 256.793 35.3114C256.912 35.4003 256.925 35.3889 256.989 35.3451C257.057 35.3002 257.2 35.4107 257.1 35.4879C256.999 35.5662 257.165 35.6306 257.188 35.6216C257.21 35.6085 257.275 35.8284 257.275 35.8284C257.275 35.8284 257.359 35.9277 257.338 36.0222C257.316 36.1185 257.383 36.1185 257.427 36.1243C257.47 36.1328 257.602 36.1243 257.609 36.2147C257.617 36.3018 257.682 36.2785 257.691 36.3247C257.697 36.3672 257.691 36.4327 257.691 36.4327L257.763 36.529L257.703 36.5739C257.703 36.5739 257.703 36.6467 257.721 36.6682C257.734 36.6891 257.785 36.8219 257.785 36.8451C257.785 36.8666 257.873 37.0475 257.91 37.0781C257.946 37.1088 258.049 37.2034 258.019 37.2539C257.992 37.3062 258.15 37.4097 258.226 37.3499C258.299 37.2907 258.352 37.3196 258.352 37.3196L258.393 37.2099L258.511 37.2034L258.539 36.9167C258.539 36.9167 258.483 36.8289 258.393 36.9611C258.276 37.1668 257.992 36.9382 258.247 36.7925C258.312 36.8219 258.344 36.7645 258.344 36.7645C258.344 36.7645 258.423 36.6603 258.453 36.6682C258.483 36.676 258.635 36.7048 258.556 36.5142C258.473 36.3247 258.453 36.155 258.497 36.0974C258.539 36.0377 258.511 36.389 258.722 36.456C258.935 36.5218 258.972 36.4269 258.924 36.5869C258.872 36.7488 258.872 36.7645 258.893 36.8219C258.913 36.8815 258.952 36.9104 258.885 36.9382C258.819 36.9688 258.819 37.0781 258.885 37.158C258.952 37.2406 258.972 37.2617 258.988 37.3196C259.003 37.3793 259.045 37.3865 259.075 37.4007C259.104 37.4159 259.179 37.4678 259.148 37.497C259.156 37.5484 259.214 37.6124 259.362 37.5701C259.508 37.5252 259.522 37.497 259.522 37.497C259.522 37.497 259.444 37.2191 259.566 37.0936C259.691 36.9688 259.522 37.5252 259.875 37.6004C260.225 37.6722 260.065 37.6063 260.095 37.5106C260.123 37.4159 260.188 37.3577 260.188 37.3577C260.188 37.3577 260.277 37.0864 260.329 37.1088C260.38 37.1302 260.35 37.3286 260.35 37.3499C260.35 37.3719 260.454 37.4159 260.469 37.3865C260.483 37.3577 260.557 37.3719 260.562 37.3928C260.569 37.4159 260.645 37.5484 260.651 37.5192C260.66 37.4886 260.821 37.2907 260.718 37.5335C260.733 37.7681 260.772 37.921 260.772 37.921C260.772 37.921 260.806 38.0902 260.667 37.9151C260.527 37.7376 260.389 37.8047 260.389 37.8047C260.389 37.8047 260.277 37.8554 260.323 37.8918C260.366 37.9299 260.372 38.0247 260.329 38.0305C260.286 38.0402 260.131 38.2732 260.307 38.2822C260.483 38.2882 260.403 38.3621 260.323 38.3693C260.241 38.3755 260.182 38.2822 260.138 38.1847C260.095 38.0902 260.043 37.8703 260.065 37.8399C260.087 37.8105 259.978 37.6952 259.715 37.6722C259.45 37.6491 259.757 37.7607 259.757 37.7607C259.757 37.7607 259.832 38.0096 259.627 37.7825C259.418 37.5555 259.302 37.6722 259.302 37.6722C259.302 37.6722 259.148 37.6491 259.111 37.6063C259.075 37.5625 258.928 37.5849 259.075 37.7376C259.221 37.8918 259.098 38.0826 259.098 38.0826C259.098 38.0826 259.045 38.0013 259.038 37.9068C259.03 37.8105 258.913 37.7969 258.913 37.8476C258.913 37.901 258.79 37.8399 258.79 37.8399C258.79 37.8399 258.673 37.9299 258.687 37.9805C258.702 38.0305 258.885 37.9881 258.893 38.0974C258.9 38.2079 258.944 38.2213 258.988 38.2368C259.03 38.2516 259.104 38.3257 259.104 38.4411C259.104 38.4411 259.179 38.6763 259.251 38.7421C259.324 38.8092 259.338 38.8534 259.345 38.9185C259.354 38.9827 259.405 39.183 259.426 39.1982C259.45 39.2124 259.478 39.4894 259.463 39.5125C259.45 39.5343 259.265 39.9521 259.492 39.7556C259.544 39.6452 259.574 39.7323 259.595 39.7323C259.617 39.7323 259.676 39.7094 259.683 39.6595C259.691 39.6073 259.794 39.6073 259.816 39.653C259.837 39.6959 259.955 39.7166 259.941 39.5996C259.927 39.4836 259.998 39.4313 260.058 39.3873C260.116 39.3433 260.176 39.3583 260.176 39.3583C260.176 39.3583 260.123 39.1154 260.199 39.183C260.271 39.249 260.299 39.3082 260.299 39.3082C260.299 39.3082 260.426 39.2853 260.438 39.3433C260.454 39.4032 260.667 39.7166 260.66 39.3816C260.651 39.044 260.703 38.9926 260.791 39.0582C260.879 39.1233 260.952 39.0946 260.952 39.0946C260.952 39.0946 261.18 39.1311 261.107 39.2853C261.034 39.4396 261.172 39.4687 261.172 39.4687C261.172 39.4687 261.311 39.6878 261.414 39.497C261.517 39.3082 261.765 39.2124 261.832 39.3947C261.897 39.5781 262.388 39.5431 262.493 39.5552C262.594 39.5722 262.849 39.3352 263.034 39.418C263.217 39.497 263.282 39.4032 263.166 39.2853C263.047 39.1675 263.129 39.154 263.129 39.154L263.152 39.0057C263.152 39.0057 263.24 38.5971 263.32 39.0288C263.4 39.4604 263.314 39.3738 263.314 39.3738C263.314 39.3738 263.282 39.418 263.421 39.4894C263.562 39.5632 263.547 39.6595 263.512 39.6667C263.473 39.6742 263.494 39.8194 263.628 39.7906C263.76 39.763 263.774 39.8941 263.774 39.8941L263.847 39.9599L263.892 40.1213C263.892 40.1213 263.943 40.2162 264.025 40.0982C264.104 39.9814 264.179 40.3339 264.179 40.3339C264.179 40.3339 264.353 40.5453 264.447 40.3628C264.545 40.1792 264.637 40.2466 264.637 40.2466L264.867 40.1577C264.867 40.1577 265.167 40.1943 265.167 40.3119C265.167 40.4297 265.116 40.619 265.327 40.4726C265.468 40.4894 265.482 40.3853 265.482 40.3853C265.482 40.3853 265.696 40.1446 265.788 40.1051C265.886 40.0692 265.812 39.8863 265.812 39.8863C265.812 39.8863 265.703 39.8786 265.636 39.9448C265.572 40.012 265.555 39.7906 265.593 39.763C265.628 39.7323 265.597 39.6452 265.597 39.6452C265.597 39.6452 265.649 39.1892 265.74 39.4469C265.827 39.7035 266.04 39.4032 266.04 39.4032C266.04 39.4032 266.068 39.271 265.973 39.2124C265.879 39.154 265.943 38.7207 266.133 38.8227C266.238 38.8456 266.253 38.9185 266.253 38.9185C266.253 38.9185 266.515 38.9268 266.287 38.7129C266.287 38.7129 266.076 38.5894 265.989 38.6184C265.9 38.6472 265.842 38.2658 265.9 38.4117C265.96 38.5601 266.716 38.7161 266.514 38.3362C266.434 38.1924 266.617 38.0859 266.664 37.973C266.752 37.7867 266.765 37.6325 266.765 37.6325C266.765 37.6325 266.18 37.4294 266.193 37.3577C266.207 37.283 266.705 37.1957 266.765 37.3577C266.825 37.5192 266.867 37.2556 266.911 37.21C266.955 37.1669 266.999 37.0051 267.041 37.0051C267.088 37.0051 267.014 36.903 266.925 36.859C266.838 36.8147 266.825 36.6542 266.825 36.6542C266.825 36.6542 266.734 36.5656 266.632 36.5362C266.531 36.5058 266.312 36.287 266.312 36.287C266.312 36.287 266.09 36.0975 266.107 36.0378C266.121 35.9799 266.149 35.7876 266.003 35.775C265.856 35.7601 266.163 35.6274 266.221 35.4353C266.28 35.2461 266.604 34.5866 266.604 34.5866C266.604 34.5866 266.81 34.6445 266.56 34.9812C266.312 35.3202 266.353 35.5983 266.353 35.5983L266.28 35.7601C266.28 35.7601 266.09 35.935 266.427 35.9948C266.765 36.0529 266.531 36.1398 266.531 36.1398C266.531 36.1398 266.604 36.2578 266.752 36.2578C266.896 36.2578 266.896 36.1243 266.896 36.1243C266.896 36.1243 267.088 35.7876 267.132 36.0529C267.174 36.3169 267.102 36.2728 267.102 36.2728C267.102 36.2728 267.014 36.6394 267.115 36.6103C267.218 36.5797 267.295 36.5656 267.351 36.6542C267.411 36.7411 267.484 36.8451 267.688 36.8289C267.895 36.8147 267.995 36.859 268.085 36.6394C268.174 36.4197 268.127 36.0975 268.127 36.0975C268.127 36.0975 268.114 35.6425 268.127 35.554C268.143 35.4659 268.174 35.3626 268.174 35.3626C268.174 35.3626 268.334 35.3332 268.275 35.2766C268.217 35.2169 268.325 35.1675 268.393 35.1803C268.458 35.1909 268.512 34.9388 268.512 34.9053C268.512 34.8719 268.405 34.5425 268.471 34.4218C268.536 34.301 268.568 34.5425 268.578 34.576C268.591 34.6079 268.877 34.8396 268.789 34.4656C268.7 34.0916 268.844 33.6849 268.877 33.6193C268.91 33.5535 269.084 33.3427 268.896 33.1685C268.71 32.9934 268.822 32.9265 268.822 32.9265C268.822 32.9265 268.725 32.7853 268.597 32.6655C268.42 32.4985 268.201 32.3369 268.304 32.3451C268.354 32.3465 268.536 32.4078 268.686 32.5335C268.804 32.6348 268.885 32.7995 268.994 32.8711C269.148 32.9746 269.051 32.769 269.37 33.0024L269.306 33.4435C269.306 33.4435 269.404 33.541 269.524 33.3659C269.645 33.1885 269.723 33.3337 269.645 33.5307C269.569 33.7286 269.734 33.8281 269.734 33.8281C269.734 33.8281 269.836 34.0216 269.768 34.1655C269.74 34.2309 269.324 34.0725 269.356 34.1014C269.372 34.1149 269.318 34.3549 269.449 34.4784C269.591 34.62 269.919 34.649 269.956 34.6343C270.089 34.5789 270.095 34.1578 270.227 34.0693C270.36 33.9823 270.373 33.8391 270.316 33.6952C270.263 33.5535 270.108 33.3549 270.108 33.3549C270.108 33.3549 270.008 33.0909 270.053 33.0024C270.095 32.9153 270.263 32.7384 270.217 32.685C270.172 32.6284 270.612 32.3324 270.724 32.6193C270.834 32.9048 270.865 32.7384 270.865 32.7384C270.865 32.7384 270.717 32.3247 270.695 32.401C270.694 32.4092 270.464 32.1692 270.399 32.2116C270.355 32.2394 269.97 32.1647 269.99 32.2116C269.993 32.2116 269.86 32.238 269.816 32.2116C269.773 32.1862 269.543 31.942 269.594 31.9206C269.716 31.8706 269.81 31.9584 270.05 32.0787C270.149 32.1296 270.247 32.0078 270.329 32.0502C270.361 32.0684 270.498 32.0363 270.608 32.1157C270.657 32.1523 270.791 32.2187 270.855 32.3279C270.887 32.3858 270.904 32.4561 270.935 32.5186C270.966 32.5752 271.004 32.67 271.031 32.7241C271.062 32.7853 271.013 32.7936 271.039 32.8419C271.083 32.9232 270.987 33.0069 271.039 33.0485C271.123 33.1126 271.137 32.9322 271.208 32.9888C271.366 33.1138 271.646 33.0543 271.648 33.059C271.651 33.0633 271.746 33.0983 271.762 33.1057C271.838 33.1363 271.931 33.1506 271.942 33.1782C271.962 33.2161 272.132 33.0954 272.153 33.1351C272.156 33.1443 272.274 32.8621 272.296 32.8925C272.314 32.9172 272.503 32.6974 272.527 32.7281C272.545 32.749 272.716 32.7923 272.736 32.8159C272.743 32.8242 272.956 32.9862 272.913 33.059C272.886 33.0983 272.589 32.9888 272.56 33.0358C272.542 33.0619 272.443 33.0226 272.428 33.0485C272.396 33.0967 272.322 33.171 272.296 33.2132C272.253 33.2815 272.373 33.4254 272.379 33.4312C272.452 33.5275 272.518 33.6112 272.527 33.6283C272.541 33.6572 272.488 33.6752 272.403 33.6862C272.396 33.6862 272.373 33.7197 272.34 33.7697C272.324 33.7961 272.503 33.9335 272.483 33.9719C272.474 33.9866 272.44 34.1089 272.473 34.1789C272.497 34.2386 272.655 34.2526 272.679 34.3115C272.715 34.3913 272.669 34.4465 272.659 34.4656C272.636 34.5059 272.473 34.3681 272.45 34.4115C272.425 34.4539 272.483 34.6214 272.46 34.6626C272.44 34.6997 272.249 34.576 272.229 34.6079C272.212 34.6387 272.058 34.5194 272.044 34.5425C272.006 34.6021 271.892 34.5425 271.877 34.5425C271.833 34.5455 271.741 34.3316 271.691 34.3316C271.634 34.3349 271.589 34.1789 271.537 34.1789C271.474 34.1789 271.758 33.9269 271.713 33.9269C271.652 33.9269 271.658 33.7024 271.658 33.707C271.674 33.7519 271.399 33.3993 271.406 33.4435C271.409 33.4813 271.191 33.4754 271.184 33.5091C271.17 33.5762 271.333 33.9575 271.315 34.0375C271.299 34.1351 271.039 33.8846 271.02 33.9912C271.006 34.0693 270.768 33.9823 270.757 34.0595C270.74 34.1423 270.891 34.295 270.877 34.3771C270.861 34.4717 270.682 34.4963 270.667 34.5867C270.65 34.7029 271.627 35.0568 271.612 35.1588C271.598 35.2766 271.663 35.1848 271.658 35.269C271.648 35.4075 271.475 35.3332 271.503 35.3235C271.531 35.3145 271.299 35.3889 271.382 35.4427C271.432 35.4762 271.387 35.5938 271.449 35.6425C271.526 35.7004 271.289 35.7891 271.372 35.8621C271.421 35.9033 271.497 35.8852 271.548 35.9278C271.598 35.9721 271.455 36.047 271.503 36.091C271.56 36.1399 271.674 36.1244 271.725 36.1693C271.787 36.2286 271.873 36.2349 271.922 36.2785C272.023 36.3718 271.998 36.5433 271.998 36.5433C271.998 36.5433 272.14 36.5752 272.208 36.401C272.232 36.3384 272.256 36.2376 272.285 36.1693C272.315 36.0975 272.416 36.1065 272.45 36.0378C272.473 35.9857 272.645 36.2259 272.669 36.1795C272.699 36.1231 272.627 35.6425 272.448 35.5298C272.373 35.4822 272.542 35.4108 272.581 35.4108C272.666 35.4108 272.649 35.3904 272.747 35.3889C272.84 35.3875 272.785 36.0196 272.878 36.0151C272.971 36.012 273.05 36.0991 273.132 36.0925C273.212 36.0865 273.202 36.3658 273.263 36.3568C273.366 36.3411 273.54 36.4607 273.549 36.4327C273.557 36.4165 273.565 36.3325 273.578 36.2026C273.587 36.1153 273.363 36.1617 273.373 36.0378C273.385 35.8926 273.601 35.7022 273.616 35.52C273.624 35.4255 273.277 35.5779 273.285 35.4762C273.294 35.3556 273.451 35.4165 273.459 35.2899C273.48 35.02 273.245 34.7818 273.263 34.5313C273.277 34.3771 273.087 34.5103 273.097 34.3771C273.111 34.2431 273.287 34.0693 273.295 33.9719C273.317 33.778 273.539 33.947 273.549 33.9587C273.562 33.9764 273.667 33.6511 273.561 33.6193C273.469 33.5919 273.711 33.1476 273.582 33.1028C273.442 33.0543 273.348 32.8744 273.218 32.8287C273.096 32.7825 272.802 32.7095 272.659 32.6074C272.563 32.5385 272.581 32.4195 272.581 32.4195L272.703 32.2653C272.703 32.2653 272.693 31.7705 273.01 31.574C273.327 31.3756 273.251 31.3202 273.251 31.3202C273.251 31.3202 273.275 31.0351 273.327 30.9911C273.384 30.9474 273.327 30.7042 273.327 30.7042L273.285 30.5283C273.285 30.5283 273.196 30.4741 273.218 30.3534C273.241 30.2314 273.142 30.112 273.142 30.112C273.142 30.112 273.01 29.9457 272.989 29.9033C272.966 29.8584 272.57 29.8025 272.768 29.6283C272.966 29.4492 272.923 29.6602 272.923 29.6602C272.923 29.6602 273.031 29.682 273.022 29.5717C273.01 29.4622 273.132 29.5508 273.153 29.6052C273.177 29.6602 273.308 29.6725 273.327 29.5612C273.351 29.4492 273.474 29.286 273.539 29.3978C273.602 29.506 273.704 29.2543 273.637 29.1538C273.571 29.0559 273.68 28.8593 273.68 28.8593C273.68 28.8593 273.77 28.5941 273.704 28.53C273.637 28.4606 273.44 28.2087 273.781 27.7701L273.813 27.5503C273.813 27.5503 273.813 27.0976 273.561 27.4509C273.308 27.8035 273.251 27.6044 273.417 27.4399C273.582 27.2736 273.813 27.1658 273.813 26.8466C273.813 26.5256 273.704 26.7244 273.704 26.7244C273.704 26.7244 273.802 26.4055 273.967 26.2423C274.132 26.0757 274.252 25.8556 274.21 25.6254C274.165 25.3938 274.342 24.9307 275.21 25.174C275.21 25.174 275.584 25.0994 275.013 25.0301C274.44 24.9646 274.558 24.8669 274.649 24.8332C274.737 24.7984 274.868 24.7006 274.746 24.69C274.628 24.679 274.813 24.3042 274.892 24.2402C274.966 24.1746 275.198 24.6133 275.287 24.2067C275.375 23.8008 275.703 24.2507 275.396 24.4489C275.089 24.6469 275.044 24.6352 275.044 24.6352C275.044 24.6352 274.761 25.0198 275.099 24.9307C275.44 24.8445 275.375 25.0532 275.375 25.0532C275.375 25.0532 275.385 25.0994 275.451 25.0867C275.516 25.075 275.528 25.174 275.516 25.2292C275.506 25.2833 275.727 25.3384 275.782 25.3384C275.836 25.3384 275.945 25.5266 275.758 25.6573C275.573 25.7886 275.693 25.9428 275.758 25.9658C275.824 25.9877 275.836 26.1978 275.77 26.2526C275.703 26.3077 275.638 26.4726 275.638 26.4726C275.638 26.4726 275.484 26.7117 275.615 26.7366C275.747 26.7566 275.824 26.8235 275.804 26.8789C275.782 26.9345 275.904 27.0219 275.914 26.8893C275.923 26.7566 276.023 26.7683 276.023 26.7683C276.023 26.7683 276.056 26.7027 276.011 26.6268C275.968 26.5485 276.133 26.5049 276.167 26.4816C276.198 26.4614 276.232 26.2955 276.232 26.2955C276.232 26.2955 276.319 26.053 276.155 26.0098L275.992 25.9658C275.992 25.9658 275.87 25.8556 275.992 25.7886C276.111 25.7231 276.101 25.6254 276.078 25.5917C276.056 25.5599 276.155 25.5143 276.155 25.5143C276.155 25.5143 276.232 25.3724 276.143 25.2397C276.056 25.1084 276.078 25.0642 276.056 24.9978C276.035 24.9307 275.923 24.811 275.87 24.7341C275.813 24.6582 275.703 24.0842 275.935 23.8983C276.167 23.7122 275.935 23.7558 275.935 23.7558C275.935 23.7558 275.904 23.5793 275.98 23.5256C276.056 23.4689 276.143 23.1515 275.794 23.1411C275.615 23.1059 275.77 22.9093 275.77 22.9093C275.77 22.9093 275.804 22.7104 275.747 22.6448C275.693 22.5792 275.661 22.2271 275.716 22.1294C275.77 22.0286 275.904 21.7662 275.904 21.7662C275.904 21.7662 275.992 21.6226 275.923 21.5568C275.86 21.4912 275.87 21.3586 275.892 21.2492C275.914 21.1388 276.035 21.0614 275.923 20.9408C275.813 20.82 275.923 20.7543 275.968 20.6872C276.011 20.6216 276.299 20.2373 275.98 19.8864C275.661 19.5336 275.849 19.3684 275.849 19.3684C275.849 19.3684 275.573 18.3126 276.475 17.06C276.528 16.9375 276.035 17.3773 275.914 17.5101C275.794 17.6426 275.671 17.696 275.804 17.3878C275.824 17.3324 275.758 17.2688 275.758 17.2688C275.758 17.2688 275.904 17.0922 275.945 17.2032C275.992 17.3133 276.056 17.302 276.089 17.1925C276.123 17.0807 276.232 16.9927 276.232 16.9927C276.232 16.9927 276.264 16.73 276.078 16.7956C275.892 16.8621 275.956 16.6084 275.956 16.6084C275.956 16.6084 275.804 16.2681 275.813 16.1576C275.824 16.0483 276.011 15.961 275.86 15.7947C275.703 15.6299 275.904 15.1902 275.992 15.0575C276.078 14.9266 275.935 14.8276 275.904 14.8276C275.87 14.8276 275.703 14.6838 275.98 14.5964C276.255 14.5079 276.319 14.2442 276.319 14.2442C276.319 14.2442 276.177 14.0458 276.187 13.9907C276.198 13.9358 276.056 13.8493 276.101 13.7055C276.143 13.5623 275.804 13.5191 275.836 13.3212C275.87 13.1241 275.375 13.2001 275.44 12.7168C275.318 12.6277 275.198 12.5518 275.198 12.5518C275.198 12.5518 274.737 12.7061 274.692 12.4632C274.649 12.2212 274.428 11.9797 274.428 11.9797L274.121 12.0026C274.121 12.0026 274.044 11.9797 274.077 11.8358C274.111 11.6926 273.571 11.65 273.571 11.65C273.571 11.65 273.087 13.7836 272.022 12.8814C271.823 12.9243 271.482 12.9362 271.341 12.4632C271.142 12.7061 270.865 12.7272 270.822 12.7061C270.779 12.683 270.779 12.8924 270.724 12.8814C270.668 12.8691 270.712 13.101 270.612 13.1562C270.514 13.2114 270.121 14.2105 269.349 14.299C269.14 14.2566 269.215 14.101 269.215 14.101C269.215 14.101 269.074 14.0034 268.986 14.0458C268.896 14.09 268.964 13.7726 268.964 13.7726C268.964 13.7726 268.952 13.5191 268.777 13.6843C268.601 13.8493 268.458 13.7499 268.458 13.7499C268.458 13.7499 268.405 13.5301 268.164 13.8274C267.919 14.1234 267.688 14.4871 267.295 14.2888C266.896 14.09 267.115 14.1681 267.115 14.1681L266.908 14.189C266.908 14.189 266.852 14.1448 266.765 14.0691C266.679 13.9907 266.679 14.101 266.622 14.1448C266.568 14.189 266.533 14.1234 266.491 14.0691C266.445 14.0139 266.271 14.0797 266.261 14.1448C266.248 14.2105 265.896 14.6621 265.468 14.4536C265.301 14.3984 265.291 14.5313 265.291 14.5313C265.291 14.5313 265.029 14.6411 264.993 14.6411C264.993 14.6411 264.676 14.9924 264.993 15.2898C265.074 15.3639 264.997 15.4991 265.05 15.543C265.208 15.6696 265.4 15.5982 265.4 15.5982C265.4 15.5982 265.51 15.5565 265.597 15.7074C265.654 15.7962 265.932 15.9415 265.932 16.0405C265.932 16.1269 265.572 15.961 265.842 16.3227C266.073 16.6309 266.315 16.7516 266.336 16.8506C266.339 16.8648 266.397 16.9303 266.398 16.9565C266.398 16.9914 266.344 16.9914 266.342 17.0369C266.339 17.069 266.247 17.078 266.245 17.1099C266.244 17.1449 266.151 17.2246 266.149 17.2583C266.145 17.296 266.261 17.3485 266.325 17.3602C266.353 17.3647 266.516 17.3543 266.565 17.4064C266.589 17.434 266.642 17.5191 266.669 17.5553C266.694 17.5875 266.712 17.6381 266.734 17.672C266.77 17.7241 266.849 17.7783 266.875 17.8275C266.935 17.9342 267.002 18.0839 266.961 18.078C266.947 18.0767 266.804 17.9297 266.886 18.0121C266.932 18.059 266.707 17.8046 266.589 17.6778C266.548 17.6369 266.451 17.5598 266.413 17.5206C266.388 17.4957 266.335 17.5333 266.284 17.525C266.272 17.5236 266.221 17.5206 266.198 17.443C266.181 17.3774 266.156 17.3746 266.094 17.3454C266.068 17.3324 266.165 16.9927 266.149 16.9714C266.117 16.9272 266.083 16.8297 266.017 16.8297C265.95 16.8297 265.907 16.8297 265.854 16.73C265.799 16.6309 265.764 16.5532 265.698 16.4982C265.631 16.443 265.545 16.2896 265.576 16.2232C265.612 16.1576 265.753 15.9812 265.588 15.8835C265.424 15.7843 265.347 15.8282 265.248 15.9155C265.148 16.0041 264.588 15.9155 264.697 15.6638C264.798 15.543 265.04 15.6526 264.763 15.3888C264.488 15.125 264.676 15.2225 264.655 15.1902C264.632 15.1569 264.588 15.08 264.488 15.0914C264.391 15.1017 264.335 15.0258 264.29 15.0144C264.246 15.0028 264.159 14.9138 264.159 14.9138C264.159 14.9138 264.049 15.1354 263.873 15.2007C263.697 15.2663 263.653 15.1673 263.653 15.1673C263.653 15.1673 263.523 15.1569 263.544 15.2663C263.566 15.3781 263.598 15.6741 263.169 15.719C263.169 15.719 263.147 15.7731 263.202 15.8499C263.259 15.9258 263.126 15.9258 263.126 15.9258C263.126 15.9258 263.113 16.179 263.157 16.2342C263.202 16.2896 263.29 16.9927 263.047 16.3117C262.971 16.179 263.004 16.0588 263.004 16.0588L262.916 15.9377C262.916 15.9377 262.916 15.9258 262.961 15.8706C263.004 15.8165 263.082 15.805 262.961 15.7074C262.84 15.6085 262.807 15.563 262.807 15.5309C262.807 15.4991 262.763 15.5199 262.644 15.6405C262.521 15.7626 262.169 15.9046 262.048 15.8706C261.927 15.8385 261.599 15.7509 261.432 15.805C261.266 15.8604 261.134 15.9155 261.014 15.8604C260.894 15.805 260.904 15.6957 260.74 15.805C260.576 15.9156 260.552 15.9931 260.432 15.9155C260.311 15.8385 260.068 15.6851 259.99 15.6957C259.913 15.7074 259.881 15.6957 259.816 15.6405C259.751 15.5854 259.827 15.5199 259.641 15.5199C259.453 15.5199 259.101 15.2123 258.935 15.2344C258.772 15.2559 258.727 15.1354 258.627 15.0258C258.528 14.9138 258.617 14.9266 258.408 14.9266C258.201 14.9266 258.101 14.9475 258.001 14.8162C257.901 14.6838 257.87 14.6838 257.716 14.6621C257.56 14.6411 257.497 14.6621 257.375 14.6182C257.253 14.5742 257.253 14.563 257.145 14.4305C257.034 14.299 256.999 14.2775 256.925 14.2233C256.847 14.1681 256.835 14.1787 256.77 14.101C256.704 14.0244 256.704 13.9585 256.727 13.9041C256.746 13.8493 256.704 13.7181 256.584 13.7272C256.462 13.7389 256.198 13.8157 256.043 13.7181C255.891 13.6166 255.901 13.5847 255.715 13.5526C255.527 13.5191 255.462 13.5847 255.339 13.42C255.219 13.2554 255.122 13.1124 255.077 13.0466C255.031 12.979 255.054 12.9362 254.924 13.0239C254.793 13.1124 254.405 12.9582 254.296 12.9467C254.186 12.9362 254.02 12.979 253.767 12.8814C253.514 12.7818 253.668 12.7485 253.492 12.6277C253.316 12.5065 253.239 12.5184 253.096 12.5184C252.955 12.5184 252.91 12.4967 252.866 12.4515C252.823 12.408 252.833 12.4194 252.636 12.4423C252.438 12.4632 252.24 12.4742 252.318 12.5415C252.393 12.6069 252.448 12.639 252.295 12.639C252.141 12.639 251.877 12.6069 251.789 12.5289C251.701 12.4515 251.745 12.4967 251.68 12.4194C251.615 12.3425 251.757 12.2771 251.569 12.309C251.381 12.3425 251.362 12.4515 251.306 12.32C251.25 12.1891 251.283 12.1891 251.194 12.1443C251.107 12.1002 251.194 12.045 251.15 11.99C251.107 11.9357 251.216 11.8472 250.999 11.9141C250.778 11.9797 250.756 12.1775 250.622 12.089C250.493 12.0026 250.393 11.99 250.326 11.9692C250.262 11.9476 250.052 11.8699 250.052 11.8699C250.052 11.8699 249.987 11.8575 249.975 11.7702C249.965 11.6824 249.854 11.7366 249.821 11.7478C249.788 11.7599 249.743 11.6713 249.699 11.65C249.655 11.6271 249.59 11.5505 249.59 11.6824C249.59 11.8151 249.491 11.9797 249.469 11.792C249.446 11.6057 249.482 11.5505 249.37 11.4832C249.262 11.4191 249.181 11.4191 249.216 11.3521C249.249 11.2865 249.349 11.3314 249.249 11.1889C249.249 11.1889 249.175 10.7219 249.026 11.1145" fill="#ED1C24"/>
<path d="M249.137 10.2969C249.137 10.2969 249.502 10.9454 249.446 10.2633C249.39 9.5824 249.502 9.80224 249.502 9.80224C249.502 9.80224 249.612 9.7366 249.546 9.50489C249.481 9.27406 249.546 9.22988 249.546 9.13228C249.546 9.0315 249.512 8.61508 249.512 8.61508C249.512 8.61508 249.369 8.72455 249.369 8.82394C249.369 8.92292 249.446 9.17466 249.324 9.22988C249.203 9.28648 249.217 9.37378 249.217 9.37378C249.217 9.37378 249.16 9.41796 249.072 9.36274C248.986 9.30813 248.95 9.34165 248.986 9.52723C249.017 9.71513 249.203 9.78078 249.137 10.2969Z" fill="#ED1C24"/>
<path d="M250.018 9.08735C250.018 9.08735 250.206 9.40655 250.413 9.26334C250.622 9.12124 250.677 9.07706 250.677 8.96704C250.677 8.85721 250.732 8.80062 250.765 8.76867C250.799 8.73515 250.81 8.61447 250.746 8.57029C250.677 8.52648 250.746 8.49458 250.732 8.43937C250.723 8.38277 250.634 8.39468 250.545 8.41615C250.458 8.43937 250.392 8.46033 250.324 8.41615C250.26 8.37229 250.216 8.59213 250.206 8.62551C250.193 8.65921 250.073 8.86769 250.028 8.8453C249.986 8.82388 249.766 8.85722 250.018 9.08735Z" fill="#ED1C24"/>
<path d="M250.249 11.385C250.249 11.385 250.182 11.7269 250.314 11.8037C250.448 11.8796 250.523 11.8479 250.545 11.7925C250.569 11.7383 250.667 11.7269 250.687 11.7592C250.712 11.7925 250.834 11.7489 250.854 11.6937C250.876 11.6384 251.064 11.5289 251.161 11.5725C251.26 11.616 251.273 11.5184 251.314 11.4953C251.36 11.4735 251.503 11.4735 251.524 11.5505C251.546 11.6277 251.744 11.5725 251.448 11.3307C251.151 11.0892 251.117 11.2538 251.042 11.1763C250.965 11.0982 250.941 11.066 250.91 11.0438C250.876 11.0236 250.722 11.0236 250.722 11.0236C250.722 11.0236 250.733 10.9334 250.677 10.8575C250.621 10.7806 250.545 10.7933 250.534 10.9334C250.523 11.0787 250.227 11.1549 250.249 11.385Z" fill="#ED1C24"/>
<path d="M250.558 10.4842C250.558 10.4842 250.6 10.6717 250.655 10.7145C250.712 10.7581 250.82 10.792 250.777 10.693C250.732 10.5937 250.701 10.528 250.701 10.473C250.701 10.4187 250.701 10.2409 250.622 10.2963C250.544 10.3529 250.558 10.4842 250.558 10.4842Z" fill="#ED1C24"/>
<path d="M251.602 11.946C251.614 11.9905 251.79 12.1768 251.912 12.221C252.031 12.2657 252.008 12.4845 251.855 12.3647C251.7 12.2424 251.569 12.2424 251.569 12.2424C251.569 12.2424 251.459 12.1112 251.482 12.0345C251.504 11.957 251.602 11.946 251.602 11.946Z" fill="#ED1C24"/>
<path d="M253.241 11.9684C253.241 11.9684 252.99 11.4078 253.23 11.6157L253.472 11.8245C253.472 11.8245 253.451 11.8914 253.406 11.9131C253.363 11.9345 253.374 12.1006 253.386 12.1663C253.396 12.2319 253.263 12.4077 253.263 12.4077C253.263 12.4077 253.189 12.1226 253.241 11.9684Z" fill="#ED1C24"/>
<path d="M247.788 1.22576C247.788 1.22576 247.81 1.88542 247.349 2.06035C247.129 2.19307 247.237 2.35826 247.237 2.35826L247.228 2.61074C247.228 2.61074 247.349 2.79739 247.304 3.04008C247.263 3.28301 247.359 3.16095 247.38 3.23846C247.404 3.3151 247.359 3.33749 247.337 3.47977C247.316 3.62293 247.247 3.79878 247.237 3.88732C247.228 3.9755 247.197 4.40309 247.337 4.49163C247.481 4.57981 247.733 5.064 247.623 5.5156C247.623 5.67879 247.501 5.64666 247.501 5.64666C247.501 5.64666 247.448 5.63641 247.537 5.8665C247.623 6.09678 247.558 6.21889 247.558 6.21889C247.558 6.21889 247.623 6.23888 247.677 6.25097C247.733 6.26145 247.768 6.27281 247.744 6.37161C247.723 6.47082 247.921 6.54658 247.942 6.38209C247.966 6.21889 248.085 6.10726 248.14 6.11843C248.196 6.12891 248.283 6.10726 248.304 6.0647C248.329 6.01908 248.548 5.94226 248.548 5.94226C248.548 5.94226 248.767 5.65714 248.812 5.59025C248.855 5.52584 248.998 5.44829 249.031 5.45895C249.065 5.46943 249.197 5.4373 249.174 5.31574C249.151 5.19511 249.316 4.86493 249.316 4.83156C249.316 4.79929 249.372 4.20651 249.372 4.20651C249.372 4.20651 248.931 4.15134 249.119 3.6004C249.218 3.55733 249.252 3.23846 249.23 3.17138C249.208 3.10573 249.151 3.10573 249.131 2.96257C249.109 2.8201 249.065 1.96275 249.096 1.8634C249.131 1.76461 249.096 1.69878 249.031 1.62214C248.963 1.54458 248.756 1.37991 248.681 1.30184C248.603 1.22576 248.537 1.17055 248.48 1.18158C248.426 1.1922 248.447 1.18158 248.371 1.082C248.296 0.984266 248.228 0.961737 248.173 0.984266C248.118 1.00592 248.063 0.995436 248.041 0.961735C248.02 0.928357 247.778 0.718997 247.788 0.883625C247.799 1.04991 247.713 1.04991 247.713 1.04991C247.713 1.04991 247.699 1.16011 247.778 1.1922C247.854 1.22576 247.788 1.22576 247.788 1.22576Z" fill="#ED1C24"/>
<path d="M271.061 12.3309L271.143 12.2433C271.143 12.2433 271.179 12.002 271.032 12.1774C270.885 12.3531 271.01 12.3836 271.061 12.3309Z" fill="#ED1C24"/>
<path d="M273.549 1.71005C273.549 1.71005 273.693 2.11635 273.802 2.03972C273.914 1.96216 273.957 2.08334 273.988 2.16178C274.024 2.23625 274.409 2.69883 274.507 2.754C274.605 2.80847 274.638 2.8972 274.772 3.18265C274.903 3.46939 275.1 3.62358 275.1 3.62358C275.1 3.62358 275.157 3.72131 275.2 3.79887C275.243 3.87694 275.264 3.73323 275.376 3.73323C275.485 3.73323 275.397 3.75469 275.65 3.87694C275.903 3.99651 275.993 4.00681 275.993 4.00681C275.993 4.00681 276.09 3.94097 276.036 4.14983C275.981 4.35901 275.969 4.77718 276.036 4.87602C276.1 4.97555 275.815 5.27346 275.694 5.29424C275.574 5.31584 275.485 5.50379 275.639 5.52539C275.795 5.54617 276.036 5.34941 276.036 5.34941C276.036 5.34941 276.277 6.0527 276.354 6.15173C276.431 6.25052 276.354 6.49257 276.112 6.55822C275.871 6.62511 275.924 6.55822 275.903 6.50374C275.881 6.44839 275.517 6.27291 275.364 6.45882C275.21 6.64676 275.299 6.81139 275.131 6.83304C274.97 6.85631 274.783 6.92177 274.727 7.00797C274.673 7.09831 274.528 6.93221 274.462 6.91037C274.397 6.88821 274.211 6.75622 274.166 6.69094C274.121 6.62511 273.988 6.40527 274.1 6.35079C274.211 6.29419 274.166 6.18418 274.057 6.07435C273.947 5.96489 273.924 6.03072 273.935 5.82261C273.947 5.61394 274.166 5.74505 273.924 5.4367C273.681 5.12975 273.606 5.07315 273.606 5.07315C273.606 5.07315 273.496 4.87602 273.452 4.74509C273.408 4.61255 273.254 4.56837 273.154 4.60225C273.057 4.63402 273.033 4.60226 272.958 4.53499C272.88 4.46934 272.812 4.49173 272.78 4.45835C272.748 4.42465 272.858 4.32692 272.935 4.3152C273.011 4.30416 273.342 4.05062 272.847 3.26076C272.628 3.10657 272.484 3.33684 272.484 3.33684C272.484 3.33684 272.362 3.40392 272.285 3.27101C272.209 3.13847 272.086 3.16104 272.055 3.15075C272.021 3.13847 271.933 3.00754 272.033 2.89721C272.132 2.78793 272.341 2.63355 272.387 2.5998C272.429 2.56772 272.538 2.61153 272.582 2.58882C272.628 2.56772 272.769 2.47936 272.714 2.40074C272.659 2.32479 272.67 2.31454 272.758 2.24908C272.847 2.18214 272.912 2.18214 272.847 2.08335C272.78 1.98432 272.638 1.84134 272.737 1.7757C272.836 1.71005 272.912 1.94014 273 1.86461C273.088 1.78594 273.352 1.65506 273.374 1.56633C273.395 1.47779 273.629 1.42313 273.549 1.71005Z" fill="#ED1C24"/>
<path d="M271.924 5.2167C271.924 5.2167 272.067 5.10706 272.079 5.0295C272.09 4.95287 272.123 4.83224 272.145 4.76534C272.166 4.69969 272.134 4.40229 272.1 4.47967C272.067 4.55792 272.079 4.55792 272.067 4.59005C272.056 4.62338 272.046 4.68903 272.023 4.75468C272 4.81995 271.99 4.8874 271.914 4.96316C271.837 5.0416 271.572 5.5148 271.924 5.2167Z" fill="#ED1C24"/>
<path d="M272.898 7.21792C272.898 7.21792 273.227 7.15246 273.086 7.40439C272.943 7.65761 272.877 7.53697 272.8 7.46985C272.723 7.40438 272.657 7.3615 272.626 7.32812C272.591 7.2946 272.58 7.17392 272.702 7.19701C272.822 7.21792 272.898 7.21792 272.898 7.21792Z" fill="#ED1C24"/>
<path d="M273.24 6.93273L273.195 7.06347C273.195 7.06347 273.304 7.1179 273.34 7.02035C273.372 6.92137 273.319 6.8988 273.24 6.93273Z" fill="#ED1C24"/>
<path d="M276.356 3.65526C276.356 3.65526 276.244 3.86393 276.377 3.85364C276.51 3.84228 276.532 3.72091 276.356 3.65526Z" fill="#ED1C24"/>
<path d="M275.617 6.65756C275.617 6.65756 275.606 6.87736 275.728 6.84365C275.848 6.81175 275.981 6.76702 275.617 6.65756Z" fill="#ED1C24"/>
<path d="M276.07 6.96556C276.07 6.96556 275.97 7.14136 276.091 7.17493C276.213 7.20683 276.312 7.17493 276.278 7.05411C276.246 6.93219 276.157 6.91035 276.07 6.96556Z" fill="#ED1C24"/>
<path d="M275.377 9.82465C275.377 9.82465 275.565 9.63657 275.565 9.50564C275.565 9.3731 275.586 9.31793 275.641 9.2629C275.698 9.20865 275.663 8.97745 275.52 9.17652C275.377 9.3731 275.312 9.25228 275.312 9.25228C275.312 9.25228 275.279 9.15473 275.146 9.24162C275.015 9.32818 274.915 9.27412 274.837 9.27412C274.762 9.27412 274.63 9.41728 274.63 9.41728C274.63 9.41728 274.509 9.54982 274.607 9.58195C274.707 9.6151 274.727 9.80304 274.707 9.85821C274.685 9.91319 274.882 9.93397 274.882 9.93397L274.948 9.90059C274.948 9.90059 274.958 9.90059 275.003 9.99957C275.046 10.0997 275.134 10.2208 275.191 10.1538C275.245 10.0885 275.41 10.0443 275.377 9.82465Z" fill="#ED1C24"/>
<path d="M273.835 7.97601C273.835 7.97601 274.046 7.90044 274.088 7.85575C274.132 7.81157 274.197 7.82182 274.232 7.83336C274.263 7.84527 274.32 7.72427 274.342 7.67016C274.363 7.61481 274.408 7.7342 274.517 7.68928C274.628 7.6469 274.77 7.67903 274.836 7.63429C274.902 7.59173 274.946 7.59173 275.001 7.6469C275.057 7.70211 275.123 7.74611 275.176 7.72427C275.23 7.70211 275.209 7.71254 275.254 7.76771C275.298 7.82182 275.363 7.86674 275.385 7.72427C275.41 7.57963 275.484 7.37207 275.528 7.46962C275.573 7.56865 275.64 7.59173 275.683 7.56864C275.727 7.54792 275.825 7.62381 275.825 7.62381C275.825 7.62381 275.813 7.56865 275.87 7.52483C275.922 7.48245 276.123 7.46962 276.123 7.46962C276.123 7.46962 276.308 7.37207 276.32 7.3169C276.332 7.26224 276.375 7.30642 276.463 7.39372C276.552 7.48245 276.627 7.67903 276.682 7.68928C276.738 7.70211 276.859 7.76771 276.859 7.84527C276.859 7.92191 276.758 8.07541 276.869 8.04185C276.98 8.00994 277.066 8.05283 277.101 8.22956C277.133 8.4054 277.211 8.42793 277.266 8.43911C277.321 8.44959 277.321 8.49432 277.321 8.54861C277.321 8.60378 277.432 8.63549 277.432 8.63549C277.432 8.63549 277.387 8.75668 277.244 8.69089C277.101 8.62525 277.078 8.75668 277.111 8.85695C277.144 8.95455 277.101 8.94425 277.013 8.9316C276.927 8.9226 276.837 8.89952 276.88 9.03225C276.927 9.1641 276.771 9.10888 276.694 9.06433C276.616 9.02163 276.661 9.03225 276.563 9.13197C276.463 9.22956 276.419 9.26308 276.375 9.03225C276.332 8.80197 276.177 8.52765 276.101 8.59187C276.024 8.65895 276.044 8.62525 276.001 8.57003C275.958 8.51523 275.935 8.5367 275.88 8.63549C275.825 8.73632 275.584 8.84671 275.584 8.84671C275.584 8.84671 275.563 8.86743 275.417 8.75668C275.277 8.64616 275.265 8.54861 275.144 8.66943C275.025 8.79149 274.992 8.76841 274.923 8.70133C274.858 8.6355 274.791 8.60378 274.725 8.66943C274.659 8.73632 274.682 8.65895 274.573 8.73632C274.461 8.8119 274.451 8.8467 274.363 8.7787C274.275 8.71305 274.067 8.73632 274.088 8.62525C274.111 8.51523 274.143 8.44959 274.011 8.44959C273.878 8.44959 273.725 8.51523 273.748 8.46006C273.77 8.4054 273.582 8.09702 273.835 7.97601Z" fill="#ED1C24"/>
<path d="M275.802 27.1751C275.802 27.1751 276.002 27.1535 276.008 27.3295C276.013 27.5048 276.099 27.4561 276.109 27.4768C276.124 27.4988 276.176 27.7026 276.035 27.6635C275.893 27.6251 275.796 27.4664 275.683 27.4709C275.567 27.4768 275.351 27.3675 275.413 27.2864C275.475 27.2029 275.573 27.0994 275.802 27.1751Z" fill="#ED1C24"/>
<path d="M273.891 30.3314C273.891 30.3314 273.969 30.1116 274.048 30.0214C274.122 29.9349 274.253 29.7821 274.321 29.9466C274.386 30.1116 274.367 29.9684 274.432 29.9791C274.497 29.9895 274.529 30.0339 274.541 30.122C274.553 30.2092 274.661 30.0995 274.684 30.2746C274.706 30.4521 274.804 30.5296 274.849 30.5729C274.894 30.6165 274.794 30.6063 274.739 30.6928C274.684 30.7814 274.661 30.8366 274.553 30.8149C274.442 30.7916 274.048 30.7375 274.265 30.9908C274.488 31.2445 274.408 31.2869 274.321 31.3305C274.234 31.3752 274.167 31.3857 274.09 31.3857C274.013 31.3857 273.969 31.3752 273.948 31.4304C273.925 31.4849 273.682 31.6607 273.737 31.3969C273.794 31.1339 273.825 31.2562 273.88 31.1467C273.936 31.0364 273.915 31.0012 273.948 30.9908C273.982 30.9796 274.069 30.9458 274.069 30.9458C274.069 30.9458 274.244 30.8806 274.069 30.748C273.891 30.6165 273.891 30.7916 273.891 30.7916C273.891 30.7916 273.662 30.7916 273.794 30.6607C273.925 30.5296 273.86 30.484 273.837 30.4411C273.815 30.3969 273.891 30.3314 273.891 30.3314Z" fill="#ED1C24"/>
<path d="M268.702 35.0483C268.702 35.0483 268.977 34.6508 269.12 35.1242C269.262 35.5974 269.163 35.5422 269.217 35.6526C269.273 35.7618 269.338 35.6845 269.308 35.8829C269.273 36.0812 269.318 36.1144 269.394 36.191C269.47 36.2686 269.484 36.2791 269.504 36.4333C269.525 36.586 269.394 36.6096 269.308 36.5436C269.217 36.4767 269.196 36.5772 269.151 36.6309C269.11 36.6868 268.644 37.2137 268.713 37.2576C268.779 37.3023 268.791 37.4877 268.735 37.5659C268.679 37.6419 268.81 37.9185 268.942 37.7627C269.075 37.6099 269.207 37.7414 269.12 37.9066C269.031 38.0714 268.846 38.1719 268.878 38.2463C268.911 38.3248 268.846 38.4343 268.791 38.5109C268.735 38.5884 268.679 38.7323 268.735 38.8842C268.791 39.0386 268.713 39.1505 268.644 39.1929C268.579 39.2375 268.537 39.3029 268.381 39.1839C268.227 39.0615 268.294 38.9944 268.208 39.0048C268.118 39.0176 268.086 38.9304 268.129 38.8314C268.175 38.7323 268.294 38.6541 268.151 38.5565C268.008 38.457 267.987 38.4662 268.064 38.4005C268.141 38.3367 268.107 38.1719 267.987 38.2591C267.867 38.3457 267.823 38.3015 267.834 38.4662C267.844 38.6324 267.844 38.6874 267.758 38.7414C267.667 38.7978 267.679 38.9304 267.679 38.9304C267.679 38.9304 267.711 38.9841 267.591 38.9841C267.471 38.9841 267.348 38.9727 267.348 38.9727C267.348 38.9727 267.282 38.9073 267.296 38.8416C267.306 38.7747 267.306 38.6541 267.074 38.4005C266.843 38.1488 267.262 38.2359 267.296 38.3684C267.327 38.5012 267.425 38.5884 267.471 38.6324C267.513 38.677 267.603 38.7531 267.656 38.578C267.711 38.4005 267.724 38.4005 267.734 38.3684C267.745 38.3367 267.69 38.3248 267.656 38.2912C267.624 38.2591 267.744 38.029 267.744 38.029C267.744 38.029 267.768 37.9946 267.724 37.94C267.679 37.8851 267.636 37.7524 267.711 37.7858C267.789 37.8193 267.867 37.9841 267.92 37.8851C267.974 37.7858 268.064 37.8956 268.064 37.7524C268.064 37.6099 267.996 37.5659 267.996 37.5093C267.996 37.4565 268.098 37.4336 268.098 37.4336C268.098 37.4336 268.186 37.4222 268.208 37.3567C268.227 37.2898 268.274 37.2366 268.251 37.169C268.227 37.1032 268.239 37.0929 268.284 37.0489C268.329 37.0058 268.381 36.9834 268.381 36.9283C268.381 36.8731 268.527 36.586 268.537 36.9283C268.548 37.2686 268.579 37.1032 268.644 37.0489C268.713 36.9939 268.967 36.6765 268.967 36.6765C268.967 36.6765 268.898 36.5101 268.921 36.4551C268.942 36.4015 268.767 36.3007 268.81 36.2352C268.856 36.1698 269.011 36.1593 269.063 36.191C269.12 36.225 269.186 36.0937 269.086 36.037C268.989 35.9817 268.933 35.9393 268.878 35.9817C268.823 36.0266 268.799 35.9946 268.735 35.95C268.668 35.9058 268.724 35.8947 268.591 35.9393C268.46 35.9817 268.372 36.0266 268.381 35.9393C268.396 35.8507 268.294 35.7618 268.438 35.7072C268.579 35.6526 268.579 35.6309 268.527 35.5422C268.472 35.4542 268.438 35.388 268.537 35.3123C268.636 35.2346 268.702 35.1139 268.702 35.0482" fill="#ED1C24"/>
<path d="M261.772 40.1824C261.772 40.1824 261.949 40.0729 261.805 40.0392C261.663 40.0075 261.575 40.0847 261.597 40.1168C261.617 40.149 261.707 40.2479 261.772 40.1824Z" fill="#ED1C24"/>
</g>
<defs>
<clipPath id="clip0_2896_933">
<rect width="276.68" height="40" fill="white" transform="translate(0.758789 0.820068)"/>
</clipPath>
</defs>
</svg>
